<?xml version="1.0" standalone="no"?>
<!DOCTYPE svg PUBLIC "-//W3C//DTD SVG 20010904//EN"
 "http://www.w3.org/TR/2001/REC-SVG-20010904/DTD/svg10.dtd">
<svg version="1.0" xmlns="http://www.w3.org/2000/svg"
 width="460.000000pt" height="460.000000pt" viewBox="0 0 460.000000 460.000000"
 preserveAspectRatio="xMidYMid meet">
<metadata>
Created by potrace 1.14, written by Peter Selinger 2001-2017
</metadata>
<g transform="translate(0.000000,460.000000) scale(0.100000,-0.100000)"
fill="#000000" stroke="none">
<path d="M298 4588 c-3 -7 -1 -29 2 -50 12 -62 2 -88 -30 -88 -25 0 -29 -4
-28 -29 1 -36 -9 -52 -27 -44 -9 3 -15 -1 -15 -10 0 -8 7 -17 15 -21 9 -3 15
0 15 9 0 8 9 15 21 15 11 0 18 4 14 9 -3 5 -1 12 4 15 14 9 24 -13 14 -27 -6
-8 -1 -20 15 -35 l25 -24 -8 29 c-5 15 -7 39 -6 53 1 14 3 35 4 48 1 12 10 25
20 28 10 3 17 15 17 30 0 15 6 24 15 24 9 0 15 -9 15 -24 0 -27 22 -40 39 -23
14 14 43 -51 31 -73 -9 -16 2 -35 33 -59 15 -12 19 -12 32 5 14 19 14 18 15
-1 0 -12 -6 -27 -12 -34 -10 -11 -10 -13 0 -7 11 7 16 -4 13 -31 -1 -6 3 -14
8 -18 11 -6 28 53 30 103 2 48 4 62 10 62 3 0 8 41 9 90 l4 90 -145 0 c-106 0
-146 -3 -149 -12z"/>
<path d="M1154 4584 c3 -9 6 -18 6 -20 0 -9 33 -3 59 11 25 12 31 12 41 0 10
-12 42 -16 118 -15 12 0 22 -4 22 -9 0 -12 -39 -21 -46 -10 -3 5 -23 9 -45 9
-33 0 -39 -3 -39 -21 0 -15 5 -19 15 -15 10 4 20 -3 27 -19 6 -14 19 -25 30
-25 20 0 24 15 6 26 -7 5 -8 3 -3 -7 7 -12 6 -12 -7 -1 -9 8 -14 20 -11 29 5
13 8 13 20 0 15 -15 67 -11 57 4 -3 5 0 9 5 9 6 0 11 -7 11 -15 0 -8 -6 -15
-13 -15 -7 0 -13 -9 -14 -19 -1 -15 4 -19 25 -18 22 2 27 -2 26 -20 0 -13 3
-23 7 -23 4 0 11 -9 14 -21 5 -16 10 -18 21 -8 7 6 20 9 27 6 7 -2 23 4 36 14
13 11 18 19 12 19 -6 0 -11 7 -11 15 0 12 4 13 19 5 24 -12 62 -13 59 -1 -2 5
8 18 21 30 22 19 22 21 5 21 -17 0 -16 2 5 19 22 17 23 19 6 28 -12 7 -14 13
-6 17 6 4 11 14 11 22 0 12 -39 14 -261 14 -230 -1 -260 -3 -255 -16z"/>
<path d="M1772 4589 c2 -6 8 -10 13 -10 5 0 11 4 13 10 2 6 -4 11 -13 11 -9 0
-15 -5 -13 -11z"/>
<path d="M1868 4573 c5 -25 6 -25 19 -7 8 11 23 18 35 16 12 -2 18 0 14 7 -4
6 -22 11 -40 11 -31 0 -33 -2 -28 -27z"/>
<path d="M3090 4581 c5 -11 15 -21 22 -24 7 -2 -8 -14 -34 -26 -27 -12 -48
-24 -48 -26 0 -7 37 0 70 12 38 15 120 16 120 3 0 -6 4 -8 10 -5 10 6 76 -21
85 -34 2 -4 -1 -13 -7 -21 -8 -12 -9 -12 -4 3 8 24 3 21 -23 -14 -18 -24 -20
-33 -11 -44 10 -13 15 -11 32 10 29 37 54 32 78 -14 12 -25 16 -42 10 -46 -6
-3 -10 -1 -10 4 0 6 -8 11 -17 11 -15 0 -16 2 -3 10 8 5 12 11 9 15 -9 9 -59
-35 -59 -52 0 -11 7 -13 33 -8 l32 7 -19 -21 c-11 -11 -25 -21 -31 -21 -7 0
-16 -11 -19 -24 -3 -14 -15 -27 -26 -31 -10 -3 -22 -15 -25 -26 -4 -11 -18
-24 -31 -29 -13 -5 -24 -17 -24 -27 0 -9 -14 -32 -32 -50 -29 -30 -32 -31 -45
-15 -8 9 -11 11 -7 3 5 -11 3 -13 -10 -8 -10 4 -30 10 -44 14 -63 16 -143 126
-114 155 8 8 9 4 6 -13 -4 -14 -2 -19 3 -13 4 6 25 14 46 18 57 11 44 27 -18
22 l-55 -4 2 54 c3 51 4 53 19 33 17 -23 79 -32 86 -12 4 11 -60 30 -81 25 -5
-2 -5 5 -1 15 8 22 13 41 8 30 -3 -4 -9 -5 -13 -2 -14 9 -32 -33 -24 -57 4
-14 2 -18 -5 -14 -8 5 -11 -12 -11 -56 0 -82 36 -158 96 -199 24 -16 51 -29
61 -29 44 -1 40 -16 -24 -100 -35 -47 -82 -115 -105 -153 -22 -37 -44 -70 -48
-72 -5 -3 -26 28 -49 69 -22 41 -46 80 -53 87 -20 21 -51 70 -65 102 -17 38
-100 75 -196 87 -82 10 -126 2 -262 -46 -38 -14 -92 -26 -120 -28 -53 -2 -105
-29 -105 -53 0 -8 -10 -29 -22 -46 -13 -18 -24 -35 -24 -39 -1 -5 -2 -13 -3
-19 0 -5 -5 -7 -11 -4 -5 3 -13 -7 -17 -22 l-7 -28 -7 30 c-10 46 -10 118 1
135 7 11 10 0 10 -38 0 -29 3 -51 8 -49 4 3 7 22 6 44 -1 21 -2 103 -3 183
l-1 145 -372 -2 c-366 -1 -553 -7 -594 -19 -19 -5 -20 -11 -16 -97 2 -51 9
-98 14 -104 6 -7 32 -13 59 -13 48 0 49 -1 49 -30 0 -33 -13 -38 -38 -14 -14
15 -17 15 -29 -2 -12 -17 -14 -17 -28 2 -16 21 -16 21 -21 -21 -2 -19 0 -25 5
-16 6 9 10 10 16 2 4 -8 22 -10 51 -5 28 4 44 3 44 -4 0 -6 12 -17 27 -24 37
-18 42 -45 9 -54 -14 -3 -26 -9 -26 -13 0 -4 -12 -6 -27 -5 -16 0 -36 -1 -47
-4 -16 -4 -17 -6 -2 -14 9 -5 21 -6 26 -3 6 3 10 1 10 -6 0 -7 -11 -9 -35 -5
l-35 7 0 -73 c0 -41 -4 -67 -8 -60 -11 17 -32 -75 -32 -142 0 -58 6 -71 27
-55 10 9 13 3 13 -36 0 -37 -3 -46 -14 -42 -19 8 -23 -5 -25 -86 l-2 -68 35
-14 c20 -8 44 -15 55 -15 23 0 36 27 21 45 -7 9 -6 16 3 23 18 15 39 1 27 -18
-6 -8 -10 -21 -10 -27 0 -18 37 -16 48 3 8 14 10 14 21 0 18 -22 -4 -52 -25
-35 -19 16 -44 4 -44 -21 0 -19 10 -24 39 -21 7 2 10 -2 6 -8 -3 -6 -15 -11
-26 -11 -26 0 -24 -29 3 -39 18 -6 19 -9 5 -14 -11 -4 -17 -18 -17 -37 0 -16
-4 -30 -10 -30 -10 0 -14 21 -11 48 2 9 -6 11 -26 6 -48 -10 -54 -14 -48 -24
4 -6 11 -8 16 -5 5 4 9 -1 9 -10 0 -12 6 -15 20 -10 11 3 20 2 20 -4 0 -5 -12
-11 -26 -13 -17 -2 -30 -11 -35 -25 -8 -22 -6 -23 49 -24 31 -1 47 -4 35 -6
-13 -2 -23 -11 -23 -19 0 -8 -10 -14 -24 -14 -12 0 -35 -11 -50 -25 -37 -34
-50 -23 -25 21 l19 35 -35 -26 c-19 -15 -32 -32 -28 -38 3 -6 1 -7 -5 -3 -7 4
-12 2 -12 -3 0 -6 -11 -11 -25 -11 -17 0 -25 6 -25 18 -1 13 -4 11 -15 -8 -20
-34 -18 -50 4 -50 10 0 25 -7 32 -16 14 -18 22 -47 10 -39 -5 2 -13 -14 -20
-35 -6 -22 -17 -40 -22 -40 -6 0 -19 -10 -30 -22 -15 -19 -18 -20 -19 -6 0 12
-5 15 -16 11 -11 -4 -12 -8 -4 -13 8 -5 4 -9 -9 -13 -12 -3 -24 -1 -27 5 -4 6
-23 17 -43 25 -35 15 -35 16 -13 26 13 6 21 16 18 23 -3 7 0 15 7 17 7 2 9 8
5 11 -3 4 -16 -2 -28 -14 -12 -12 -25 -19 -28 -15 -3 3 -7 34 -8 68 -2 86 -14
167 -25 167 -14 0 -15 -57 -4 -215 5 -71 3 -96 -4 -85 -9 12 -11 11 -11 -7 0
-12 -5 -25 -10 -28 -7 -4 -3 -19 10 -39 11 -19 20 -37 20 -42 -1 -5 -8 3 -16
19 -13 23 -17 25 -29 14 -17 -17 -23 -41 -11 -44 5 -1 17 -14 27 -30 10 -15
19 -22 19 -14 0 8 3 12 6 8 3 -3 3 -10 0 -16 -8 -12 -56 7 -56 22 0 5 -11 7
-25 4 -20 -3 -29 1 -40 22 -12 23 -14 24 -20 9 -4 -10 -5 -25 -1 -33 4 -13 2
-13 -14 -5 -27 14 -50 2 -50 -27 0 -22 4 -25 25 -20 14 2 24 2 21 0 -3 -3 14
-25 37 -50 23 -25 46 -52 51 -61 4 -10 -14 6 -40 34 -53 54 -93 78 -78 47 13
-30 7 -91 -11 -110 -14 -14 -16 -27 -11 -72 4 -31 11 -60 16 -65 6 -6 10 -17
10 -25 0 -13 -2 -13 -13 0 -6 9 -24 23 -39 32 -28 17 -28 17 -28 -6 0 -13 14
-51 30 -83 17 -32 22 -48 13 -34 -25 35 -65 71 -72 65 -3 -3 -8 -27 -12 -53
l-6 -47 -2 43 c0 24 -5 41 -10 38 -5 -3 -7 -15 -4 -26 4 -15 0 -20 -16 -20
-25 0 -26 6 -6 27 8 8 12 19 9 25 -4 7 -10 4 -16 -6 -10 -17 -48 -22 -48 -6 0
8 -19 -7 -77 -63 -25 -23 -27 -22 -52 25 -13 24 -28 36 -55 42 -41 11 -55 4
-36 -19 8 -10 9 -15 2 -15 -8 0 -11 -115 -12 -390 l0 -390 57 0 c32 0 65 -5
73 -11 11 -7 4 -8 -27 -4 -24 4 -56 4 -73 0 l-30 -7 0 -639 0 -639 1648 0
1647 0 2 94 3 93 -40 18 c-22 10 -37 22 -33 28 4 6 1 7 -6 2 -7 -4 -24 -2 -37
6 -18 9 -24 21 -24 46 0 33 -2 34 -32 31 -25 -2 -33 -8 -33 -23 0 -11 -9 -25
-20 -30 -48 -25 -234 -95 -275 -104 -25 -6 -62 -17 -82 -26 -47 -19 -48 -19
-48 3 0 10 -4 22 -9 27 -5 6 -28 55 -51 110 -22 55 -56 132 -75 170 -19 39
-38 89 -44 113 -11 50 -5 48 20 -6 l18 -37 -3 47 c-4 45 -3 47 25 53 22 5 29
12 29 31 0 13 6 24 13 24 9 0 8 3 -2 9 -11 7 -11 9 0 13 8 3 11 9 7 13 -8 9
-78 -3 -76 -13 1 -4 -3 -16 -7 -26 -8 -19 -9 -19 -17 0 -6 13 -7 8 -5 -19 2
-20 -1 -37 -5 -37 -4 0 -8 27 -8 61 0 50 3 60 15 56 8 -4 17 -2 20 3 3 5 12 7
20 3 8 -3 15 0 15 6 0 6 -7 11 -17 11 -9 0 -14 3 -10 6 10 10 47 -7 47 -21 0
-10 7 -12 30 -5 25 7 32 5 40 -11 13 -22 38 -25 46 -5 3 8 12 12 19 9 16 -5
95 36 95 49 0 5 4 7 9 3 13 -8 78 30 106 63 13 15 29 39 34 55 8 22 7 27 -6
27 -12 0 -8 10 17 35 19 19 43 35 54 35 19 1 19 2 4 11 -14 8 -15 15 -8 35 13
32 13 34 -3 34 -7 0 -33 -21 -57 -46 -43 -44 -205 -158 -280 -197 -19 -10 -45
-15 -57 -12 -15 3 -30 -2 -43 -15 -24 -24 -29 -25 -46 -2 -8 10 -13 12 -14 5
0 -7 -4 -13 -8 -13 -5 0 -7 21 -6 48 2 26 1 41 -2 34 -7 -15 -24 -6 -24 13 0
15 -137 223 -179 271 -15 16 -37 47 -50 68 -13 21 -37 52 -53 69 -16 18 -52
65 -79 105 -27 39 -53 72 -57 72 -7 0 -47 67 -47 79 0 4 -17 29 -38 58 -20 28
-37 56 -37 62 0 16 55 14 98 -5 72 -30 262 -82 268 -73 7 12 -41 59 -61 59 -8
0 -15 4 -15 10 0 5 -7 7 -15 4 -8 -4 -15 -2 -15 3 0 6 29 23 65 40 51 24 62
32 52 42 -9 10 -8 12 7 9 10 -1 21 3 23 10 3 7 -5 12 -19 13 -12 0 -46 1 -75
2 -41 2 -56 7 -72 26 -12 13 -24 21 -29 16 -4 -4 -1 -10 6 -12 17 -6 15 -23
-3 -23 -9 0 -15 10 -15 26 0 15 -4 23 -10 19 -6 -4 -8 -16 -4 -28 4 -15 3 -19
-4 -12 -12 12 -19 76 -10 90 5 8 -17 92 -27 103 -1 1 -13 5 -25 7 -12 2 -25 7
-28 10 -3 2 -12 -1 -20 -8 -13 -9 -14 -9 -8 1 4 7 2 12 -4 12 -6 0 -8 4 -5 10
3 5 45 9 94 8 58 -1 104 4 137 15 27 9 65 19 85 22 24 4 38 12 42 24 4 16 1
17 -47 6 -28 -7 -80 -22 -115 -34 -73 -24 -101 -26 -101 -8 0 8 -4 7 -10 -3
-8 -12 -10 -11 -10 8 0 12 -4 22 -10 22 -5 0 -10 -6 -10 -13 0 -11 -12 -12
-52 -6 -104 14 -128 36 -92 87 14 21 14 22 -5 22 -14 0 -21 7 -21 18 0 10 -4
22 -9 28 -4 5 -11 27 -14 49 l-5 40 16 -35 c8 -19 15 -39 13 -44 -3 -15 22
-25 39 -16 8 4 87 11 175 15 88 4 162 9 164 11 8 7 -51 24 -85 24 -27 0 -42 9
-73 40 -21 22 -48 40 -59 40 -11 0 -22 6 -25 13 -2 6 -8 9 -12 4 -9 -8 33 -57
49 -57 6 0 22 -9 36 -20 l25 -20 -25 1 c-14 1 -48 -2 -76 -6 l-51 -7 -26 43
c-14 24 -47 86 -73 138 -51 101 -88 151 -110 151 -9 0 -14 12 -14 36 0 21 -4
33 -10 29 -5 -3 -10 1 -10 9 0 9 5 16 10 16 7 0 7 7 -1 21 -8 15 -8 19 0 15 6
-4 11 0 11 8 0 9 -6 16 -14 16 -15 0 -26 -21 -26 -52 0 -19 -3 -18 -29 9 -20
21 -37 30 -60 29 -17 -1 -31 2 -31 6 0 4 -15 5 -32 1 -46 -8 -34 1 41 31 35
14 87 44 116 66 58 45 99 51 136 21 21 -17 22 -21 9 -36 -12 -14 -12 -19 -2
-22 6 -3 9 -10 6 -15 -5 -7 -2 -8 6 -3 7 4 42 9 79 10 l66 3 68 -69 c38 -38
72 -67 77 -64 5 3 -11 26 -36 51 -46 48 -52 62 -33 81 8 8 20 8 41 1 16 -6 32
-8 35 -4 10 10 32 -28 33 -56 0 -15 5 -39 10 -53 8 -20 15 -25 30 -20 15 5 31
-2 56 -24 42 -37 48 -38 40 -7 -8 33 3 39 25 13 10 -12 19 -17 19 -12 0 6 21
-37 47 -94 26 -57 48 -100 50 -95 1 5 -13 49 -31 99 -19 49 -32 93 -29 98 9
15 64 -55 58 -74 -8 -24 21 -37 46 -20 17 10 21 8 29 -14 11 -30 12 -47 4 -69
-5 -14 -8 -14 -21 0 -12 12 -18 12 -30 2 -8 -7 -11 -13 -7 -14 5 -1 21 -5 37
-8 36 -8 34 -31 -4 -45 -34 -12 -31 -31 6 -31 12 0 26 -7 29 -16 5 -13 9 -14
21 -4 20 17 20 -4 0 -24 -8 -8 -20 -37 -26 -64 l-10 -50 -32 11 c-18 6 -38 16
-45 24 -7 7 -28 20 -46 28 -18 9 -66 50 -106 91 -106 109 -152 132 -57 29 122
-134 181 -184 217 -187 31 -3 35 -7 38 -33 4 -52 12 -76 22 -70 6 3 10 1 10
-4 0 -6 -4 -11 -10 -11 -5 0 -10 -5 -10 -11 0 -5 4 -8 9 -4 5 3 12 1 16 -5 3
-5 -1 -10 -9 -10 -9 0 -16 -5 -16 -10 0 -6 4 -9 9 -8 5 2 9 0 10 -4 3 -22 0
-29 -9 -23 -5 3 -10 1 -10 -4 0 -6 7 -11 15 -11 9 0 15 -7 13 -17 -2 -12 4
-17 22 -17 14 0 32 -8 41 -18 15 -17 17 -17 23 -2 4 9 4 19 1 22 -3 3 -5 0 -5
-8 0 -10 -3 -10 -15 0 -21 17 -19 33 4 25 16 -5 19 -1 19 28 0 26 -5 35 -28
45 -22 10 -29 21 -33 54 -5 36 -2 44 16 57 12 9 25 15 30 13 4 -1 7 4 8 10 0
7 2 23 3 36 2 18 -2 22 -23 22 -24 0 -24 1 -8 17 15 15 19 16 27 4 7 -12 10
-9 15 12 4 15 11 27 15 27 4 0 21 13 38 28 33 31 154 116 211 147 20 12 80 45
134 74 53 29 97 54 97 56 0 13 -197 -84 -304 -149 -107 -64 -109 -66 -132 -60
-16 4 -23 1 -26 -13 -3 -16 -5 -15 -17 6 -11 19 -11 25 0 32 12 8 12 10 0 18
-10 6 -12 19 -7 45 4 20 10 35 14 33 4 -1 19 9 32 22 14 13 19 20 11 16 -11
-6 -13 -2 -9 19 3 14 1 26 -3 26 -5 0 -9 7 -9 15 0 17 34 37 45 27 5 -4 5 -2
2 4 -10 17 92 46 143 40 25 -3 46 -10 48 -16 11 -33 62 39 62 89 0 8 10 23 23
35 13 12 22 27 19 34 -2 7 12 14 37 18 40 6 67 24 37 24 -19 0 -11 67 12 92
13 16 12 18 -12 28 -14 5 -38 15 -52 20 -19 7 -23 14 -17 23 6 6 11 39 12 72
2 52 10 74 58 160 91 165 144 235 294 383 79 78 146 142 150 142 8 0 157 125
174 145 15 19 74 50 80 43 3 -3 8 -34 11 -69 2 -35 9 -107 14 -159 22 -204 29
-294 24 -301 -2 -4 -33 -29 -67 -55 -93 -70 -192 -159 -283 -252 -90 -91 -72
-84 -283 -113 l-94 -13 34 -14 c34 -14 152 -11 195 4 18 7 18 7 2 -13 -21 -23
-23 -33 -6 -33 17 0 114 -48 125 -62 15 -19 26 -71 13 -63 -5 3 -10 -1 -10
-10 0 -9 5 -13 10 -10 6 3 10 -5 10 -19 0 -18 -4 -24 -15 -20 -9 4 -15 0 -15
-10 0 -9 3 -15 8 -14 4 2 9 -1 12 -7 3 -5 -4 -11 -15 -13 -15 -2 -23 -14 -31
-47 -10 -43 -9 -45 13 -45 13 0 23 5 23 10 0 6 5 10 10 10 6 0 10 -6 10 -14 0
-7 14 -19 30 -26 35 -15 35 -31 -1 -41 -22 -6 -22 -7 -3 -8 12 -1 27 6 35 15
12 14 14 13 21 -6 15 -42 -20 -60 -58 -30 -16 13 -17 13 -11 -2 3 -10 2 -20
-2 -23 -5 -2 -11 -16 -13 -30 -4 -19 -2 -23 7 -15 9 8 14 5 18 -11 5 -17 2
-20 -14 -16 -14 4 -19 0 -19 -14 0 -10 5 -19 11 -19 5 0 7 5 4 10 -3 6 -1 10
4 10 6 0 11 -9 11 -20 0 -12 -7 -20 -17 -20 -17 -1 -17 -1 0 -11 9 -6 15 -14
13 -18 -3 -4 -6 -25 -8 -47 -1 -21 -7 -42 -12 -46 -6 -4 15 -7 47 -6 31 1 57
5 57 9 0 5 -7 6 -15 3 -18 -7 -20 7 -3 24 9 9 9 12 -1 12 -7 0 -10 4 -7 8 2 4
1 14 -5 22 -7 12 -9 9 -10 -10 -1 -14 -2 -29 -4 -35 -1 -5 -3 -14 -3 -20 -1
-5 -9 0 -17 13 -19 26 -11 92 11 92 8 0 14 7 14 15 0 8 6 15 13 15 9 0 11 -12
9 -40 -4 -41 4 -49 27 -27 11 10 13 4 9 -35 -4 -38 -2 -48 11 -51 9 -3 -28 -5
-81 -6 -77 -1 -98 -4 -98 -15 0 -8 -3 -16 -7 -18 -5 -1 -16 -19 -27 -38 -23
-43 -35 -240 -14 -240 9 0 9 -3 0 -12 -15 -15 -16 -88 -1 -88 8 0 9 -4 0 -13
-6 -8 -8 -17 -4 -20 3 -4 1 -7 -5 -7 -7 0 -12 -9 -12 -20 0 -13 7 -20 20 -20
11 0 20 4 20 8 0 5 25 7 55 4 37 -3 55 -1 55 7 0 6 -4 11 -9 11 -5 0 -12 12
-16 27 -4 19 -9 23 -14 14 -7 -11 -10 -11 -14 0 -4 10 -6 9 -6 -3 -1 -12 -8
-17 -21 -15 -28 4 -36 15 -16 23 17 7 22 34 6 34 -5 0 -10 -7 -10 -15 0 -8 -5
-15 -11 -15 -6 0 -9 6 -6 14 3 8 9 31 13 50 3 20 11 36 18 36 12 0 35 -44 37
-69 1 -9 4 -2 8 14 7 36 27 31 22 -5 -4 -36 16 -13 22 25 3 20 4 15 4 -14 -1
-26 4 -46 10 -48 7 -3 9 -11 6 -19 -3 -8 0 -14 6 -14 6 0 11 -4 11 -10 0 -5
-7 -10 -16 -10 -8 0 -12 -4 -9 -10 3 -5 22 -10 42 -10 20 0 53 -5 74 -12 32
-9 39 -16 41 -37 0 -14 2 -30 3 -36 2 -5 3 -22 4 -37 l1 -28 155 0 c85 0 155
-2 155 -4 0 -3 -4 -16 -10 -30 -6 -18 -14 -24 -25 -20 -11 5 -19 -3 -28 -25
-6 -17 -15 -31 -19 -31 -4 0 -8 -9 -8 -21 0 -13 4 -18 12 -13 7 5 8 3 4 -5 -6
-9 -35 -10 -113 -5 l-105 7 6 -43 c3 -24 7 -45 9 -46 2 -2 48 -17 103 -33 166
-49 244 -81 198 -81 -11 0 -24 4 -30 9 -5 5 -31 14 -59 19 -27 6 -60 13 -73
16 -12 3 -20 1 -17 -3 2 -5 18 -11 35 -14 52 -11 140 -56 140 -72 0 -8 1 -18
2 -22 1 -5 -11 -10 -28 -13 -23 -5 -28 -10 -27 -28 2 -15 -1 -21 -8 -16 -8 4
-9 0 -4 -15 6 -21 -8 -30 -19 -12 -5 8 -22 8 -46 1 -3 -1 33 -12 78 -25 46
-13 87 -27 90 -31 13 -13 -102 7 -203 37 -56 16 -117 29 -136 28 -32 0 -31 -1
16 -15 28 -8 93 -26 145 -39 52 -14 109 -32 126 -40 18 -8 37 -15 43 -15 16 0
61 -22 61 -30 0 -4 -17 -7 -37 -6 -25 0 -49 -7 -68 -22 -32 -23 -63 -27 -135
-17 -42 6 -44 5 -26 -9 28 -23 2 -20 -46 5 l-42 21 25 13 c21 12 22 14 7 20
-10 4 -16 11 -13 15 3 5 -11 14 -31 20 -20 7 -39 21 -44 34 -6 17 -9 12 -15
-29 -4 -27 -8 -60 -10 -71 -13 -86 -16 -139 -11 -168 6 -31 13 -37 62 -56 31
-11 60 -18 65 -14 6 3 15 1 22 -4 52 -41 330 -162 374 -162 16 0 21 -4 17 -15
-4 -8 -1 -15 4 -15 14 0 32 -64 32 -113 0 -31 4 -39 26 -48 35 -13 41 -6 9 11
-16 9 -23 20 -21 34 5 31 23 30 31 -2 4 -21 13 -31 30 -34 22 -5 24 -1 28 36
2 23 3 15 2 -16 -2 -32 0 -58 4 -58 19 0 41 40 42 76 1 90 11 114 57 139 24
13 51 30 60 38 9 8 32 22 50 31 l32 17 0 634 c0 550 -2 634 -15 629 -30 -12
-38 8 -11 31 27 23 35 42 14 29 -10 -6 -10 -4 0 7 9 10 12 88 12 319 l0 307
-87 -24 c-104 -28 -148 -27 -148 2 0 29 -15 51 -25 35 -13 -21 -30 -1 -29 33
1 30 1 30 8 7 7 -25 7 -25 13 -2 5 19 14 22 55 24 26 1 62 3 78 4 17 1 54 2
83 3 47 1 52 3 52 24 0 22 -2 22 -132 22 l-133 0 -8 75 c-5 44 -5 88 1 106 7
22 5 38 -4 55 -10 19 -13 20 -14 7 0 -11 -8 -18 -20 -18 -15 0 -20 6 -19 28 1
16 3 20 6 10 10 -39 23 -15 23 42 l0 60 150 0 c104 0 150 3 150 11 0 8 -45 10
-152 8 l-153 -4 -3 54 c-4 69 15 137 42 149 18 8 137 102 234 184 32 26 32 28
32 119 l0 92 -82 -7 c-206 -17 -258 -18 -258 -9 0 12 111 30 243 39 l97 7 0
143 c0 127 -2 143 -17 147 -17 4 -17 5 0 6 9 0 17 5 17 10 0 9 -307 26 -345
20 -19 -4 -20 2 -21 131 -1 95 1 117 6 75 l7 -60 1 82 2 83 124 -5 c133 -5
176 -11 176 -27 0 -10 38 -48 47 -48 1 0 3 27 3 60 l0 61 -155 -3 c-116 -2
-155 0 -155 9 0 22 21 58 44 75 31 22 168 58 223 58 39 0 43 2 43 25 l0 25
-232 0 -233 0 1 -87 c1 -49 0 -72 -2 -53 -2 19 -7 59 -10 88 l-5 52 -46 0 -46
0 7 -91 c6 -76 4 -94 -9 -109 -15 -16 -14 -21 6 -60 l22 -42 -24 -19 c-13 -10
-28 -19 -33 -19 -5 0 -42 -23 -82 -50 -40 -28 -75 -46 -78 -42 -3 5 -10 90
-16 188 -13 230 -16 244 -45 244 -22 0 -22 -2 -18 -92 3 -86 21 -333 26 -369
1 -9 -35 -46 -88 -89 -49 -40 -119 -101 -155 -135 -156 -147 -217 -203 -248
-228 -43 -35 -147 -166 -208 -262 -26 -41 -51 -72 -55 -68 -16 18 -79 146 -89
182 -27 102 54 288 200 456 51 59 102 111 66 68 -19 -23 -19 -23 7 -23 35 0
112 34 157 70 44 35 79 118 82 194 2 47 4 50 93 131 49 46 110 102 134 124
l44 41 -36 0 c-19 0 -37 -4 -39 -8 -1 -5 -46 -47 -100 -95 -89 -80 -118 -100
-118 -79 0 19 -75 94 -112 113 -22 11 -64 23 -94 26 -47 5 -51 7 -38 21 8 8
12 17 8 21 -4 3 -9 0 -11 -6 -3 -7 -9 -13 -14 -13 -6 0 -7 5 -4 10 4 6 -12 10
-40 10 -42 0 -45 -2 -35 -19z m47 -23 c-3 -8 -6 -5 -6 6 -1 11 2 17 5 13 3 -3
4 -12 1 -19z m1036 -363 c4 -71 3 -121 -2 -110 -18 43 -24 264 -6 243 1 -2 5
-61 8 -133z m-78 10 c4 -44 8 -92 10 -107 2 -15 0 -30 -5 -33 -9 -6 -18 49
-25 170 -7 110 9 86 20 -30z m-699 42 c-18 -47 -54 -85 -124 -129 -60 -39 -63
-35 -13 16 24 25 49 44 55 43 6 -1 11 5 11 13 0 18 75 113 83 105 3 -2 -3 -24
-12 -48z m19 -50 c-4 -13 -23 -40 -43 -58 l-36 -34 32 38 c17 20 35 49 38 63
4 14 8 23 11 21 2 -3 1 -16 -2 -30z m653 -87 c8 -45 8 -57 -4 -63 -20 -12 -17
-37 11 -82 16 -26 25 -56 25 -85 1 -25 5 -65 10 -90 7 -36 8 -26 5 45 l-4 90
14 -50 c17 -60 20 -206 3 -165 l-10 25 -9 -22 c-4 -13 -13 -23 -19 -23 -5 0
-10 -10 -10 -22 -1 -16 -27 -45 -87 -96 -48 -40 -90 -69 -94 -65 -8 9 -29 322
-29 437 l0 74 58 48 c31 27 62 52 67 56 6 5 21 17 35 27 14 11 26 19 27 18 1
-1 6 -27 11 -57z m135 -5 c5 -28 4 -34 -3 -20 -8 19 -14 73 -6 64 2 -2 6 -22
9 -44z m-1551 -71 c15 -3 38 -19 50 -37 22 -31 17 -30 -35 6 -16 11 -50 26
-75 33 -47 14 -47 14 -7 9 22 -3 52 -8 67 -11z m-1384 -22 c2 -6 -7 -16 -20
-21 -21 -9 -21 -10 -3 -11 18 -1 19 -1 2 -11 -9 -5 -21 -8 -25 -5 -4 2 -9 -6
-10 -19 -1 -18 2 -23 13 -19 9 4 15 0 15 -8 0 -23 -10 -27 -38 -17 -18 7 -27
6 -32 -2 -10 -15 -16 -2 -19 43 -2 28 2 38 17 42 11 4 28 16 38 27 19 21 55
22 62 1z m562 -27 c0 -19 7 -40 15 -48 13 -13 13 -19 1 -42 -9 -17 -16 -22
-19 -13 -4 10 -6 9 -6 -2 -1 -10 -13 -15 -36 -16 -29 -1 -35 2 -35 20 0 16 -2
18 -9 7 -11 -17 -81 -23 -81 -6 0 6 10 20 23 32 12 11 37 37 56 59 54 63 91
66 91 9z m2587 38 c-20 -2 -52 -2 -70 0 -17 2 0 4 38 4 39 0 53 -2 32 -4z
m-2823 -28 c8 -33 -1 -47 -25 -40 -30 10 -41 -3 -23 -30 21 -32 7 -54 -14 -23
-9 13 -17 25 -17 28 0 3 -4 11 -8 18 -5 8 -3 12 7 12 9 0 16 5 16 11 0 6 7 8
16 5 12 -5 15 -2 10 10 -3 9 -4 20 0 25 11 18 32 9 38 -16z m136 -4 c-11 -17
-29 -32 -39 -36 -10 -3 -24 -17 -31 -30 -7 -14 -19 -25 -27 -25 -16 0 -16 5
-3 31 7 13 7 19 0 19 -5 0 -10 16 -10 35 l0 35 66 0 65 0 -21 -29z m773 22
c-7 -2 -19 -2 -25 0 -7 3 -2 5 12 5 14 0 19 -2 13 -5z m1610 0 c-7 -2 -19 -2
-25 0 -7 3 -2 5 12 5 14 0 19 -2 13 -5z m-2633 -94 c24 -25 26 -31 13 -36 -9
-3 -24 -1 -35 6 -10 6 -23 9 -28 6 -15 -9 -31 30 -18 43 19 19 38 14 68 -19z
m2738 -111 c8 -111 0 -149 -12 -55 -6 54 -6 217 0 182 2 -11 8 -68 12 -127z
m-2041 100 c-3 -7 -5 -2 -5 12 0 14 2 19 5 13 2 -7 2 -19 0 -25z m-799 -42 c5
-6 13 -22 17 -35 6 -20 4 -23 -10 -18 -14 6 -16 2 -10 -22 5 -23 1 -33 -19
-48 -14 -11 -28 -32 -32 -46 -5 -24 -3 -27 19 -27 13 0 37 10 52 21 22 18 29
20 36 8 27 -40 29 -48 14 -63 -18 -18 -84 -38 -98 -29 -5 3 -30 6 -56 6 -37 0
-40 1 -16 6 29 6 30 8 33 68 3 58 2 61 -18 56 -12 -3 -32 0 -46 7 l-24 14 36
37 c21 21 41 36 46 32 5 -3 9 3 8 13 -1 11 -2 24 -1 30 1 13 57 6 69 -10z
m1005 -28 c37 -26 47 -38 78 -91 20 -37 20 -38 2 -28 -15 7 -23 7 -32 -2 -10
-9 -12 -9 -9 2 2 8 -6 16 -17 18 -12 3 -16 1 -9 -4 9 -6 7 -20 -7 -53 l-19
-45 6 49 c5 39 4 48 -7 44 -8 -3 -17 -20 -20 -39 -6 -33 -6 -33 -8 -5 -1 27
-16 29 -16 3 0 -16 -83 -21 -101 -6 -12 10 -19 8 -35 -10 -24 -26 -20 -33 16
-33 14 0 25 -5 25 -10 0 -5 -4 -7 -9 -3 -5 3 -12 1 -16 -5 -9 -14 10 -13 49 4
40 17 61 5 45 -26 -12 -22 -4 -39 16 -32 8 4 12 11 8 18 -4 6 0 6 9 -2 13 -10
17 -10 20 0 4 10 9 8 22 -5 17 -16 16 -17 -16 -17 -18 0 -40 -5 -48 -11 -11
-7 -3 -8 30 -5 25 3 74 8 110 10 l65 6 -68 -19 c-38 -10 -71 -22 -74 -25 -4
-3 27 -7 68 -7 l74 -2 -80 -9 c-44 -5 -99 -10 -122 -11 -27 -1 -43 -7 -43 -14
0 -17 -77 -17 -82 -1 -3 7 -11 9 -24 4 -19 -8 -19 -8 1 -16 11 -5 16 -9 10 -9
-5 -1 -21 -4 -35 -8 -22 -6 -24 -5 -12 10 17 20 8 37 -21 38 -20 1 -20 2 3 9
25 8 25 8 -5 10 -38 3 -19 7 70 16 51 5 64 9 49 14 -12 5 -39 4 -60 -1 -22 -4
-47 -9 -57 -9 -35 0 12 33 52 37 69 7 84 26 29 37 -22 4 -37 1 -50 -10 -16
-15 -18 -15 -18 -1 0 8 6 18 13 20 6 3 3 6 -8 7 -40 3 -60 9 -63 19 -2 6 -13
11 -24 11 -14 0 -18 5 -14 18 3 9 8 35 12 57 11 63 33 111 52 112 54 2 125 14
140 23 28 16 119 4 155 -22z m-943 2 c0 -5 -4 -10 -10 -10 -5 0 -10 5 -10 10
0 6 5 10 10 10 6 0 10 -4 10 -10z m56 -23 c1 -15 -2 -27 -8 -27 -5 0 -8 -6 -5
-14 6 -14 -21 -32 -31 -21 -10 9 -3 66 9 81 17 21 31 13 35 -19z m2874 27 c0
-7 -11 -16 -62 -55 l-28 -20 0 20 c0 29 35 61 65 61 14 0 25 -3 25 -6z m-2743
-86 c-3 -8 -6 -5 -6 6 -1 11 2 17 5 13 3 -3 4 -12 1 -19z m158 12 c3 -5 1 -10
-4 -10 -6 0 -11 5 -11 10 0 6 2 10 4 10 3 0 8 -4 11 -10z m-184 -38 c-6 -2
-11 -10 -11 -17 0 -12 -27 -27 -40 -23 -3 1 -15 -4 -28 -11 -22 -12 -23 -11
-20 15 3 27 6 30 68 57 31 13 35 13 39 -1 2 -9 -2 -18 -8 -20z m257 30 c7 -5
13 -30 14 -56 2 -38 -1 -50 -17 -59 -26 -16 -80 -25 -110 -19 -24 4 -24 5 -10
39 8 20 15 37 15 38 0 1 -16 -5 -36 -14 -30 -13 -34 -19 -29 -40 6 -22 4 -23
-29 -18 -25 4 -36 1 -40 -9 -6 -14 -57 -18 -100 -7 -18 5 -18 6 5 19 13 7 34
13 47 14 13 0 22 6 22 15 0 13 19 20 43 16 5 -1 6 3 3 8 -4 5 4 13 16 17 12 3
29 15 37 24 9 10 26 21 39 25 17 5 22 2 22 -12 0 -11 3 -14 8 -7 7 11 56 32
77 33 6 0 16 -3 23 -7z m1542 -6 c0 -3 -4 -8 -10 -11 -5 -3 -10 -1 -10 4 0 6
5 11 10 11 6 0 10 -2 10 -4z m-907 -63 c4 -3 -8 -17 -26 -31 l-32 -24 38 5
c21 3 45 3 53 0 14 -5 20 -32 7 -34 -5 0 -21 -2 -38 -4 -21 -3 -26 -2 -15 5
12 8 12 10 -5 11 -11 1 -26 1 -32 0 -7 -1 -13 5 -13 13 0 8 -6 17 -12 19 -8 3
-6 6 5 6 9 1 17 9 17 19 0 13 2 14 9 3 5 -7 14 -10 20 -7 6 4 9 12 6 17 -7 10
8 12 18 2z m1632 -23 c-3 -5 -12 -7 -20 -3 -21 7 -19 13 6 13 11 0 18 -4 14
-10z m-2405 -10 c0 -5 -5 -10 -11 -10 -5 0 -7 5 -4 10 3 6 8 10 11 10 2 0 4
-4 4 -10z m2447 4 c-3 -3 -12 -4 -19 -1 -8 3 -5 6 6 6 11 1 17 -2 13 -5z m-40
-20 c-3 -3 -12 -4 -19 -1 -8 3 -5 6 6 6 11 1 17 -2 13 -5z m13 -30 c0 -2 -7
-4 -15 -4 -8 0 -15 4 -15 10 0 5 7 7 15 4 8 -4 15 -8 15 -10z m-2474 -22 c1
-6 2 -16 3 -22 1 -14 34 -13 48 1 17 17 73 -30 67 -53 -4 -13 -1 -16 10 -12
16 6 17 4 20 -51 1 -25 -3 -30 -21 -29 -13 0 -23 -2 -23 -5 0 -3 -15 -6 -32
-6 -30 0 -33 3 -33 33 0 23 -4 32 -17 32 -9 0 -20 -5 -23 -10 -4 -6 -10 -8
-15 -5 -5 3 -10 -20 -12 -52 -3 -55 -4 -57 -15 -30 -7 15 -18 27 -25 27 -10 0
-10 2 -1 8 6 4 11 22 11 40 -1 29 -4 32 -35 32 -19 0 -33 5 -34 13 0 10 -2 10
-6 0 -2 -7 -12 -13 -22 -13 -17 0 -51 -47 -51 -70 0 -10 3 -10 14 -1 9 8 16 8
20 2 4 -5 -1 -14 -9 -19 -20 -11 -9 -42 15 -42 14 0 18 7 18 28 -1 15 -1 38 0
52 l2 24 15 -21 c9 -13 22 -20 30 -17 8 4 15 1 15 -5 0 -6 -10 -11 -21 -11
-18 0 -21 -5 -17 -30 4 -29 3 -30 -34 -30 -34 0 -38 -3 -38 -24 0 -15 7 -26
18 -29 11 -3 8 -5 -9 -6 -23 -1 -26 2 -21 24 3 18 0 25 -12 25 -10 0 -13 6
-10 15 4 8 3 23 0 32 -14 35 -31 -8 -33 -83 -1 -42 -4 -78 -6 -80 -2 -3 -17
-6 -34 -7 -25 -2 -29 -7 -31 -32 -3 -33 -31 -71 -33 -45 -1 8 -1 23 0 33 1 9
-3 17 -8 17 -6 0 -11 7 -11 15 0 16 -35 21 -44 6 -3 -5 -15 -7 -26 -4 -19 5
-19 7 -5 23 26 29 19 43 -18 36 -38 -7 -51 0 -34 19 8 9 17 10 30 3 15 -8 20
-5 24 11 3 12 10 21 15 21 5 0 6 -4 3 -10 -4 -6 5 -10 19 -10 14 0 26 -4 26
-10 0 -20 28 -10 34 13 5 18 8 20 16 7 5 -8 10 -25 10 -36 0 -26 24 -48 45
-40 24 9 19 46 -7 47 l-23 2 23 4 c28 5 30 39 2 46 -13 3 -20 14 -20 30 0 38
-19 43 -26 8 -10 -51 -23 -35 -20 24 3 56 16 90 16 42 0 -17 5 -27 15 -27 15
0 29 36 23 59 -4 15 28 38 38 28 5 -4 8 -23 7 -42 -1 -25 3 -35 14 -35 12 0
14 7 10 29 -4 17 0 36 9 50 9 12 11 21 5 21 -6 0 -11 9 -11 20 0 11 -6 20 -12
20 -9 0 -8 4 2 10 8 5 55 10 103 10 51 0 86 4 82 9 -3 5 3 12 12 14 28 7 48 3
49 -11z m129 8 c-3 -5 -17 -10 -30 -10 -13 0 -27 5 -30 10 -4 6 8 10 30 10 22
0 34 -4 30 -10z m-465 -22 c0 -7 -3 -24 -7 -36 -4 -18 -8 -20 -14 -10 -14 22
-10 58 6 58 8 0 15 -6 15 -12z m542 -52 c-4 -44 -14 -57 -27 -36 -4 6 -11 8
-16 5 -5 -4 -9 -2 -9 4 0 5 5 13 11 17 6 3 9 14 6 24 -2 9 0 25 5 34 17 30 34
2 30 -48z m545 58 c-3 -3 -12 -4 -19 -1 -8 3 -5 6 6 6 11 1 17 -2 13 -5z
m1752 -125 c6 -75 6 -128 0 -134 -5 -5 -9 20 -9 67 0 41 -3 104 -6 139 -4 35
-4 61 -1 58 4 -3 11 -61 16 -130z m79 -39 c0 -71 -2 -78 -9 -45 -4 22 -8 81
-7 130 0 77 2 84 9 45 4 -25 7 -83 7 -130z m-3091 104 c-9 -9 -28 6 -21 18 4
6 10 6 17 -1 6 -6 8 -13 4 -17z m-20 -23 c-2 -10 0 -25 4 -34 10 -18 1 -50
-12 -42 -4 3 -5 13 -2 23 6 14 4 15 -9 4 -13 -10 -16 -9 -21 9 -4 15 0 23 14
26 15 4 17 8 8 19 -9 11 -8 14 6 14 12 0 16 -6 12 -19z m30 -23 c-3 -7 -5 -2
-5 12 0 14 2 19 5 13 2 -7 2 -19 0 -25z m893 -12 c0 -8 -4 -18 -10 -21 -5 -3
-10 3 -10 14 0 12 5 21 10 21 6 0 10 -6 10 -14z m53 7 c-7 -2 -21 -2 -30 0
-10 3 -4 5 12 5 17 0 24 -2 18 -5z m-533 -18 c-7 -8 -14 -15 -15 -15 -2 0 -5
7 -9 15 -4 10 1 15 16 15 17 0 18 -2 8 -15z m257 -7 c-3 -8 -6 -5 -6 6 -1 11
2 17 5 13 3 -3 4 -12 1 -19z m493 2 c0 -5 -4 -10 -10 -10 -5 0 -10 5 -10 10 0
6 5 10 10 10 6 0 10 -4 10 -10z m10 -66 c0 -8 -4 -14 -10 -14 -5 0 -13 0 -17
0 -12 0 -10 24 1 32 13 9 26 0 26 -18z m249 -57 c14 -14 14 -74 -1 -79 -12 -4
-19 -28 -19 -71 0 -15 -4 -25 -8 -23 -4 3 -8 -1 -8 -9 0 -8 5 -12 11 -9 6 3 2
-2 -8 -10 -20 -16 -20 -16 0 -16 10 0 26 4 34 9 28 18 31 -1 3 -24 -25 -23
-26 -25 -8 -32 18 -6 18 -8 -5 -14 -14 -4 -34 -7 -45 -7 -18 -1 -18 0 3 8 12
5 22 16 22 25 0 11 -11 15 -42 14 -34 0 -39 -2 -23 -10 17 -7 16 -8 -10 -8
-37 2 -97 -20 -89 -32 3 -5 -5 -9 -18 -9 -25 0 -64 -20 -40 -20 7 0 10 -4 7
-10 -3 -5 -17 -10 -30 -10 -13 0 -31 -7 -39 -16 -9 -8 -16 -11 -16 -7 0 15 46
50 93 71 39 18 47 26 62 72 9 28 15 60 12 71 -3 10 -1 22 4 25 5 3 7 10 4 15
-4 5 2 9 12 10 16 0 16 1 -2 9 -18 8 -18 9 6 9 20 1 29 10 43 42 10 22 24 43
32 46 8 3 14 12 14 20 0 8 5 24 12 36 11 21 12 20 19 -16 3 -21 11 -43 18 -50z
m-866 53 c16 -19 16 -20 -16 -19 -17 0 -26 3 -19 6 6 2 12 11 12 19 0 18 2 18
23 -6z m2581 -11 c-28 -30 -29 -30 -32 -8 -4 24 12 39 42 39 17 0 16 -4 -10
-31z m-1945 -54 c0 -5 -4 -3 -9 5 -5 8 -9 22 -9 30 0 16 17 -16 18 -35z m-33
10 c-3 -8 2 -18 10 -23 8 -4 13 -18 11 -30 -5 -35 -17 -38 -17 -5 0 18 -6 33
-15 37 -20 7 -19 36 1 36 10 0 14 -6 10 -15z m-519 -57 c-13 -29 -28 -60 -31
-68 -3 -8 -4 -3 -2 13 2 15 -1 27 -5 27 -5 0 -9 9 -9 19 0 11 -6 22 -12 24
-10 4 -10 6 0 6 8 1 16 -8 19 -19 6 -22 21 -27 28 -7 20 55 26 69 32 64 3 -4
-6 -30 -20 -59z m2190 56 c-3 -3 -12 -4 -19 -1 -8 3 -5 6 6 6 11 1 17 -2 13
-5z m298 -14 c3 -5 1 -10 -4 -10 -6 0 -11 5 -11 10 0 6 2 10 4 10 3 0 8 -4 11
-10z m-2075 -14 c0 -11 -19 -15 -25 -6 -3 5 1 10 9 10 9 0 16 -2 16 -4z m-514
-72 c-3 -8 -13 -13 -23 -13 -17 1 -17 2 0 6 11 3 17 15 18 36 1 25 3 27 6 9 3
-13 2 -30 -1 -38z m175 -27 c-16 -16 -20 -5 -8 23 9 22 11 23 14 6 3 -10 0
-23 -6 -29z m2336 37 c-3 -3 -12 -4 -19 -1 -8 3 -5 6 6 6 11 1 17 -2 13 -5z
m-2559 -105 c12 0 10 -3 -6 -9 -13 -6 -27 -22 -33 -37 -10 -31 -42 -49 -107
-59 -63 -10 -61 -24 4 -24 70 0 68 -6 -6 -13 -30 -3 -84 -12 -120 -19 -78 -15
-147 -15 -163 1 -8 8 -2 11 22 11 28 0 33 3 28 20 -4 15 0 20 16 20 12 0 36 9
52 20 17 11 38 20 48 20 9 0 17 2 17 4 0 2 3 11 6 19 3 10 -2 17 -13 20 -10 3
-1 5 19 6 20 0 39 5 42 10 3 4 17 6 31 3 19 -3 25 0 25 14 1 18 1 18 14 2 17
-24 25 -23 36 5 l9 22 0 -22 c1 -21 20 -34 22 -15 0 4 2 22 4 40 2 18 9 40 17
49 11 14 13 9 16 -35 2 -41 7 -52 20 -53z m2609 -71 c-2 -29 -3 -6 -3 52 0 58
1 81 3 53 2 -29 2 -77 0 -105z m-2552 122 c-3 -5 -13 -6 -21 -3 -12 4 -13 8
-3 14 15 9 32 2 24 -11z m2483 -138 c5 -35 5 -65 1 -68 -8 -5 -15 41 -23 146
-4 54 -3 58 4 25 5 -22 13 -68 18 -103z m-2945 117 c7 0 3 -4 -8 -8 -11 -5
-36 -6 -55 -3 l-35 6 30 7 c17 3 36 5 43 3 8 -2 19 -4 25 -5z m462 -9 c3 -5
-3 -10 -15 -10 -12 0 -18 5 -15 10 3 6 10 10 15 10 5 0 12 -4 15 -10z m1277
-52 c-9 -9 -15 -9 -24 0 -10 10 -10 15 2 22 20 12 38 -6 22 -22z m-1752 2 c0
-5 -2 -10 -4 -10 -3 0 -8 5 -11 10 -3 6 -1 10 4 10 6 0 11 -4 11 -10z m90 -11
c0 -5 -4 -9 -10 -9 -5 0 -10 7 -10 16 0 8 5 12 10 9 6 -3 10 -10 10 -16z
m2830 -54 c0 -25 -2 -45 -4 -45 -11 0 -142 53 -150 60 -5 5 3 12 20 15 16 4
34 8 39 10 6 2 29 4 53 4 l42 1 0 -45z m-2982 13 c-7 -19 -38 -22 -38 -4 0 10
9 16 21 16 12 0 19 -5 17 -12z m683 -63 c22 -19 45 -35 52 -35 8 0 7 -4 -3
-10 -8 -5 -48 -10 -87 -10 l-73 0 11 28 c6 15 9 28 7 30 -3 3 42 31 51 32 2 0
21 -16 42 -35z m683 13 c20 -9 23 -14 15 -25 -6 -7 -18 -13 -26 -13 -13 0 -13
3 -3 15 15 19 6 20 -12 2 -7 -8 -33 -16 -58 -19 -25 -3 -39 -4 -32 -1 6 3 12
11 12 19 0 8 10 14 25 14 14 0 25 5 25 10 0 13 23 13 54 -2z m-139 -28 c-3 -5
-10 -10 -16 -10 -5 0 -9 5 -9 10 0 6 7 10 16 10 8 0 12 -4 9 -10z m-18 -32
c-9 -6 -8 -10 3 -18 9 -6 10 -10 3 -10 -6 0 -14 -8 -16 -17 -3 -10 -4 -1 -2
20 2 38 -10 48 -33 25 -7 -7 -12 -9 -12 -6 0 4 7 14 15 22 13 13 20 13 35 4
14 -9 16 -14 7 -20z m-73 12 c-30 -12 -43 -34 -16 -26 24 8 39 -9 16 -18 -9
-3 -12 -11 -8 -18 6 -10 5 -11 -8 -1 -8 7 -18 10 -21 7 -3 -4 -5 6 -4 20 2 28
21 46 47 45 9 0 6 -4 -6 -9z m-611 -62 c-12 -6 -23 -18 -26 -28 -3 -10 -20
-26 -38 -36 -33 -16 -33 -16 -19 1 14 17 13 17 -10 10 -14 -4 -32 -15 -40 -25
-17 -19 -42 -30 -84 -36 -15 -2 -34 -8 -41 -14 -18 -15 -244 -4 -286 14 -19 8
-53 20 -77 27 -49 14 -47 22 7 25 21 1 56 4 77 8 22 3 80 8 129 11 50 4 101 8
115 10 93 14 191 23 212 20 13 -3 33 2 44 10 10 8 28 14 39 14 19 0 19 -1 -2
-11z m587 -88 c0 -19 24 -55 37 -55 4 0 19 -8 33 -19 l25 -18 -40 7 c-22 3
-46 15 -54 26 -15 22 -41 25 -61 7 -12 -11 -12 -10 -1 4 14 19 22 110 9 101
-5 -3 -4 4 3 15 12 19 13 18 31 -16 10 -20 18 -43 18 -52z m-1360 55 c-7 -8
-17 -15 -22 -15 -6 0 -5 7 2 15 7 8 17 15 22 15 6 0 5 -7 -2 -15z m1489 -2
c-29 -3 -36 -8 -33 -21 3 -11 -4 -21 -21 -29 -22 -10 -27 -9 -36 9 -9 17 -9
20 4 15 10 -3 17 1 20 14 4 16 13 19 54 17 41 -1 43 -2 12 -5z m1824 -100 c4
-31 2 -53 -3 -53 -12 0 -11 -8 -16 80 -4 81 8 63 19 -27z m-1598 69 c3 -8 3
-17 0 -20 -3 -3 -5 0 -5 6 0 7 -4 12 -10 12 -5 0 -10 -7 -10 -15 0 -8 -4 -15
-8 -15 -5 0 -9 7 -9 15 0 8 4 15 9 15 5 0 7 4 4 8 -3 5 1 9 9 9 8 0 17 -7 20
-15z m-51 -56 c-3 -9 -10 -16 -14 -16 -5 0 -7 -9 -5 -20 4 -23 -1 -25 -19 -7
-11 11 -10 17 5 36 11 13 19 31 19 40 1 15 1 15 10 -1 6 -9 7 -23 4 -32z
m1321 23 c108 -11 205 -35 205 -50 0 -5 -7 -9 -15 -9 -28 0 -92 -39 -97 -58
-5 -19 -9 -19 -94 -5 -49 7 -107 17 -129 21 l-40 7 -3 59 -3 59 38 -7 c21 -3
83 -11 138 -17z m392 -16 c-3 -10 -5 -4 -5 12 0 17 2 24 5 18 2 -7 2 -21 0
-30z m-1843 0 c10 4 16 1 16 -7 0 -8 -6 -16 -12 -19 -10 -3 -10 -8 1 -18 11
-11 12 -11 6 -1 -5 10 -2 13 11 10 29 -5 23 -33 -6 -33 -16 0 -28 8 -35 23 -5
12 -16 22 -23 22 -10 0 -10 5 -1 21 8 16 13 18 19 9 4 -7 15 -10 24 -7z m66
-2 c-14 -27 -30 -36 -30 -17 0 8 8 20 18 25 23 14 24 14 12 -8z m106 -8 c-5
-21 -4 -24 4 -13 7 11 10 11 10 2 0 -7 5 -10 11 -6 7 4 10 1 7 -7 -3 -8 -17
-13 -34 -13 -16 1 -32 -3 -36 -10 -6 -8 -8 -7 -8 2 0 22 33 71 49 72 2 0 0
-12 -3 -27z m74 6 c0 -6 -4 -7 -10 -4 -5 3 -10 11 -10 16 0 6 5 7 10 4 6 -3
10 -11 10 -16z m807 -1 c-3 -8 -6 -5 -6 6 -1 11 2 17 5 13 3 -3 4 -12 1 -19z
m-1162 2 c-3 -5 -12 -10 -18 -10 -7 0 -6 4 3 10 19 12 23 12 15 0z m-903 -32
c-7 -7 -12 -8 -12 -2 0 14 12 26 19 19 2 -3 -1 -11 -7 -17z m948 12 c0 -5 -5
-10 -11 -10 -5 0 -7 5 -4 10 3 6 8 10 11 10 2 0 4 -4 4 -10z m521 -17 c13 -16
12 -17 -3 -4 -17 13 -22 21 -14 21 2 0 10 -8 17 -17z m605 0 c-4 -9 -2 -20 5
-23 6 -4 7 -10 2 -13 -5 -3 -14 -2 -21 2 -13 8 -5 51 10 51 6 0 7 -8 4 -17z
m781 -15 c-3 -8 -6 -5 -6 6 -1 11 2 17 5 13 3 -3 4 -12 1 -19z m-1757 -4 c0
-2 -7 -4 -15 -4 -8 0 -15 4 -15 10 0 5 7 7 15 4 8 -4 15 -8 15 -10z m940 -15
c0 -14 -5 -19 -17 -17 -23 4 -28 25 -6 31 10 3 19 5 21 6 1 0 2 -8 2 -20z
m-2006 0 c-3 -6 -15 -9 -25 -6 -11 3 -17 2 -15 -1 2 -4 -24 -16 -57 -27 -43
-14 -55 -21 -40 -23 15 -2 25 -12 29 -30 3 -15 7 -33 10 -39 2 -7 2 -13 0 -13
-3 0 -11 -3 -20 -6 -11 -4 -16 -1 -16 10 0 10 -8 16 -21 16 -16 0 -19 4 -14
20 9 27 -3 25 -16 -2 -8 -19 -9 -17 -4 12 3 25 2 31 -5 20 -5 -8 -10 -12 -10
-7 0 4 -13 1 -30 -8 -29 -15 -38 -34 -23 -49 11 -10 10 -40 -1 -47 -8 -6 -10
-16 -15 -68 0 -7 -7 -11 -16 -8 -8 4 -27 -6 -44 -23 -31 -31 -51 -38 -51 -18
0 6 -7 20 -17 30 -15 17 -15 18 1 18 13 0 15 4 7 18 -7 13 -6 23 2 32 7 7 8
11 2 8 -5 -2 -21 6 -34 19 -21 20 -22 23 -7 29 11 4 22 0 30 -12 13 -17 15
-16 30 13 20 41 33 48 53 31 12 -9 15 -9 9 0 -4 6 -3 12 2 12 5 0 12 9 15 20
4 15 0 20 -13 20 -11 0 -22 5 -26 12 -5 8 2 9 24 5 17 -4 32 -2 34 4 2 6 30
15 63 20 33 6 80 14 105 18 69 13 112 13 104 0z m1183 -21 c-3 -7 -5 -2 -5 12
0 14 2 19 5 13 2 -7 2 -19 0 -25z m1801 25 c-10 -2 -26 -2 -35 0 -10 3 -2 5
17 5 19 0 27 -2 18 -5z m-2858 -34 c0 -11 -4 -17 -10 -14 -5 3 -10 13 -10 21
0 8 5 14 10 14 6 0 10 -9 10 -21z m30 14 c0 -5 -5 -15 -10 -23 -7 -12 -9 -10
-7 8 1 19 17 33 17 15z m1090 -14 c0 -5 -11 -9 -25 -9 -21 0 -24 2 -13 14 13
14 38 11 38 -5z m804 -1 c-10 -13 -12 -17 -4 -10 21 18 27 15 33 -15 7 -38 1
-44 -28 -31 -30 14 -35 64 -7 71 9 3 19 5 21 6 2 0 -4 -9 -15 -21z m-2824 -31
c0 -10 12 -22 27 -28 61 -23 90 -40 90 -54 0 -13 -4 -13 -25 1 -13 9 -38 20
-54 25 -26 7 -28 6 -23 -11 5 -15 2 -18 -9 -14 -18 7 -30 34 -14 34 6 0 3 9
-7 20 -10 11 -13 20 -7 20 7 0 12 7 12 15 0 8 -8 15 -17 15 -15 0 -16 2 -3 10
16 10 30 -4 30 -33z m3539 -10 c0 -27 -2 -29 -9 -12 -12 28 -12 57 0 50 6 -3
10 -21 9 -38z m-1741 2 c-3 -8 -7 -3 -11 10 -4 17 -3 21 5 13 5 -5 8 -16 6
-23z m149 9 c-3 -8 -6 -5 -6 6 -1 11 2 17 5 13 3 -3 4 -12 1 -19z m-197 8 c0
-3 -4 -8 -10 -11 -5 -3 -10 -1 -10 4 0 6 5 11 10 11 6 0 10 -2 10 -4z m-760
-30 c0 -7 12 -39 26 -71 29 -63 39 -126 21 -137 -8 -5 -6 -13 7 -27 11 -12 15
-21 9 -21 -12 0 -2 -73 28 -209 11 -51 4 -66 -12 -25 -10 26 -44 160 -69 269
-5 22 -11 51 -14 65 -14 59 -19 170 -7 170 6 0 11 -6 11 -14z m-570 -11 c0 -8
-7 -15 -15 -15 -8 0 -15 -5 -15 -12 0 -6 -3 -8 -7 -5 -3 4 2 16 13 26 23 24
24 24 24 6z m1508 -45 c-17 -96 -41 -180 -50 -180 -4 0 -5 19 -2 42 5 28 4 39
-4 34 -6 -4 -11 1 -11 11 0 10 -4 36 -10 58 -8 33 -7 43 6 55 9 8 13 11 11 5
-3 -5 -2 -19 3 -30 6 -17 8 -17 8 -2 1 9 9 17 18 17 9 0 13 3 10 7 -4 3 0 15
10 25 9 10 17 17 19 16 1 -2 -3 -28 -8 -58z m-1013 30 c3 -6 -1 -7 -9 -4 -18
7 -21 14 -7 14 6 0 13 -4 16 -10z m-100 -18 c-3 -3 -11 0 -18 7 -9 10 -8 11 6
5 10 -3 15 -9 12 -12z m2753 11 c-10 -2 -28 -2 -40 0 -13 2 -5 4 17 4 22 1 32
-1 23 -4z m-3403 -13 c3 -6 -1 -7 -9 -4 -18 7 -21 14 -7 14 6 0 13 -4 16 -10z
m705 -11 c15 -26 7 -34 -19 -20 -12 7 -18 17 -15 26 8 21 21 19 34 -6z m-700
-80 c15 -28 5 -23 -15 7 -9 15 -12 23 -6 20 6 -4 16 -16 21 -27z m727 9 c-3
-8 -6 -5 -6 6 -1 11 2 17 5 13 3 -3 4 -12 1 -19z m-224 -7 c50 -22 69 -41 39
-41 -20 0 -42 -37 -42 -71 0 -11 -7 -28 -16 -37 -23 -23 -2 -27 36 -7 31 16
31 16 20 -4 -10 -20 -8 -21 38 -21 43 0 52 4 80 36 18 20 32 41 33 47 0 7 9
30 19 52 l19 40 -4 -55 c-6 -73 17 -398 26 -374 5 14 9 8 14 -24 4 -23 12 -45
16 -48 5 -3 5 -13 -1 -24 -7 -13 -5 -29 6 -56 11 -26 13 -43 7 -54 -6 -8 -9
-24 -7 -35 2 -11 -2 -22 -8 -26 -11 -7 -2 -79 10 -79 4 0 8 -17 8 -38 1 -22 9
-52 17 -69 9 -16 17 -43 19 -59 2 -16 5 -31 8 -34 3 -3 20 -24 39 -47 28 -37
30 -43 14 -43 -10 0 -23 8 -30 18 -8 14 -25 19 -76 20 -58 2 -117 14 -117 25
0 5 53 0 99 -9 39 -8 39 -19 -2 136 -28 102 -62 388 -73 608 -4 72 -10 132
-14 132 -4 0 -12 -11 -18 -25 -6 -14 -16 -25 -22 -25 -6 0 -8 -5 -5 -11 4 -6
-1 -17 -11 -25 -18 -14 -18 -14 1 -12 12 2 21 -4 23 -15 2 -12 -1 -17 -10 -15
-7 2 -16 -1 -18 -7 -3 -5 5 -11 18 -13 12 -2 22 -7 22 -12 0 -5 -6 -7 -14 -4
-23 9 -28 -77 -5 -97 10 -9 16 -25 14 -35 -2 -10 -4 -25 -4 -31 -2 -21 -21
-14 -21 7 0 11 -6 20 -12 20 -10 0 -10 3 0 9 10 6 7 10 -12 15 -18 4 -24 11
-19 23 5 12 2 15 -10 10 -11 -4 -17 -1 -17 8 0 8 4 15 9 15 5 0 9 13 9 30 -1
24 -4 28 -18 20 -10 -5 -20 -6 -24 -3 -3 3 -6 1 -6 -5 0 -6 -7 -9 -15 -6 -9 4
-15 0 -15 -10 0 -9 7 -16 15 -16 8 0 15 -4 15 -10 0 -5 -6 -10 -14 -10 -8 0
-19 -14 -25 -31 -8 -24 -14 -29 -24 -21 -8 7 -18 7 -27 2 -8 -5 -23 -7 -32 -4
-12 3 -18 0 -18 -10 0 -9 5 -16 12 -16 13 0 8 -7 -7 -10 -19 -4 -45 -21 -45
-30 0 -5 10 -6 23 -3 12 3 34 7 50 10 15 3 27 12 27 19 0 15 12 19 23 7 4 -3
0 -15 -10 -25 -9 -11 -11 -18 -5 -18 7 0 12 -6 12 -14 0 -19 26 -40 33 -26 4
7 5 7 3 0 -1 -7 -6 -12 -11 -12 -6 0 -16 -4 -22 -10 -7 -6 -13 -7 -13 -4 0 4
-7 1 -15 -7 -9 -10 -12 -26 -8 -50 3 -20 2 -53 -2 -74 -6 -35 -8 -37 -21 -18
-17 23 -18 72 -1 78 7 3 5 6 -5 6 -12 1 -18 9 -18 26 0 14 -6 25 -13 25 -8 0
-14 -7 -14 -15 0 -48 -90 -136 -144 -140 -13 -1 -25 -7 -27 -13 -2 -8 -8 -7
-18 3 -17 16 -10 60 7 49 17 -10 39 29 26 44 -8 11 -5 18 13 33 14 10 27 19
30 19 12 0 40 60 40 84 0 18 4 24 15 20 8 -4 15 -1 15 6 0 6 5 8 10 5 6 -3 10
1 10 11 0 9 8 23 18 31 15 13 15 14 0 9 -11 -3 -15 -1 -12 8 3 7 -2 16 -10 19
-10 4 -14 0 -11 -13 3 -13 -1 -17 -11 -13 -7 3 -12 9 -9 13 3 4 -2 11 -11 14
-13 5 -13 9 3 30 10 14 28 27 41 31 13 3 22 13 22 24 0 11 11 28 25 39 16 13
21 21 12 25 -19 7 -57 -11 -57 -28 0 -8 -7 -15 -16 -15 -11 0 -14 5 -9 18 4 9
9 36 11 59 3 40 2 42 -17 30 -10 -6 -19 -15 -19 -19 0 -4 -19 -20 -41 -35 -23
-16 -53 -36 -68 -45 -33 -22 -40 -22 -36 0 2 9 4 25 4 35 1 10 5 16 10 13 5
-4 7 3 4 14 -4 16 -2 19 11 14 11 -4 19 2 26 20 5 14 14 26 20 26 6 0 9 -4 5
-9 -12 -21 19 -22 58 -2 23 11 58 23 77 26 32 5 37 10 57 62 12 32 25 70 29
86 3 15 8 27 9 27 2 0 23 -9 48 -19z m2215 -23 c2 -11 -3 -18 -13 -18 -9 0
-13 -4 -10 -10 3 -5 0 -10 -8 -10 -8 0 -17 12 -19 28 -3 24 -1 28 21 27 16 0
27 -6 29 -17z m-3051 -14 c-3 -3 -12 -4 -19 -1 -8 3 -5 6 6 6 11 1 17 -2 13
-5z m60 0 c-3 -3 -12 -4 -19 -1 -8 3 -5 6 6 6 11 1 17 -2 13 -5z m3070 0 c-3
-3 -12 -4 -19 -1 -8 3 -5 6 6 6 11 1 17 -2 13 -5z m-2623 -35 c-3 -5 -10 -7
-15 -3 -5 3 -7 10 -3 15 3 5 10 7 15 3 5 -3 7 -10 3 -15z m2553 1 c1 -11 -2
-18 -8 -15 -11 7 -12 35 -1 35 4 0 8 -9 9 -20z m-2720 -32 c-3 -7 -5 -2 -5 12
0 14 2 19 5 13 2 -7 2 -19 0 -25z m2648 22 c3 -5 1 -10 -4 -10 -6 0 -11 5 -11
10 0 6 2 10 4 10 3 0 8 -4 11 -10z m495 4 c-36 -8 -234 -23 -239 -18 -15 15
36 24 139 23 63 -1 108 -3 100 -5z m-3373 -76 c-3 -8 -6 -5 -6 6 -1 11 2 17 5
13 3 -3 4 -12 1 -19z m470 16 c-3 -3 -12 -4 -19 -1 -8 3 -5 6 6 6 11 1 17 -2
13 -5z m-512 -83 c3 -13 4 -26 0 -29 -3 -3 -5 1 -5 9 0 8 -9 32 -20 54 -20 39
-20 39 -1 15 11 -14 23 -36 26 -49z m427 27 c-7 -7 -12 -8 -12 -2 0 14 12 26
19 19 2 -3 -1 -11 -7 -17z m-375 -10 c-3 -8 -6 -5 -6 6 -1 11 2 17 5 13 3 -3
4 -12 1 -19z m233 -20 c0 -5 -10 -8 -22 -7 -13 0 -17 3 -10 6 6 2 12 12 12 21
0 15 2 15 10 2 5 -8 10 -18 10 -22z m45 -8 c3 -5 -1 -10 -10 -10 -9 0 -13 5
-10 10 3 6 8 10 10 10 2 0 7 -4 10 -10z m3115 -4 c0 -2 -9 -6 -20 -9 -11 -3
-20 -1 -20 4 0 5 9 9 20 9 11 0 20 -2 20 -4z m-3047 -26 c-3 -11 -10 -20 -15
-20 -5 0 -6 5 -3 10 3 6 -1 10 -10 10 -9 0 -13 5 -10 10 3 6 14 10 25 10 13 0
17 -5 13 -20z m2485 -31 c16 -1 16 -2 0 -6 -10 -3 -18 -16 -20 -35 -2 -17 -9
-33 -17 -36 -10 -3 -12 3 -6 26 5 23 2 33 -12 42 -16 9 -15 10 6 4 19 -5 23
-3 18 9 -3 8 -3 18 1 22 4 4 8 0 10 -9 2 -9 11 -17 20 -17z m126 14 c8 -20 -8
-38 -28 -30 -9 4 -12 13 -9 26 6 25 28 28 37 4z m-64 -17 c0 -19 -4 -23 -20
-19 -23 6 -24 9 -7 28 18 21 27 18 27 -9z m-3044 -64 c-4 -3 -14 2 -24 12 -16
18 -16 18 6 6 13 -6 21 -14 18 -18z m3044 18 c0 -3 -5 -12 -10 -20 -8 -13 -10
-12 -10 3 0 9 -4 17 -10 17 -5 0 -10 -7 -10 -15 0 -8 -5 -15 -10 -15 -7 0 -7
6 0 19 9 17 50 26 50 11z m-2880 -25 c14 -19 14 -19 -2 -6 -10 7 -18 18 -18
24 0 6 1 8 3 6 1 -2 9 -13 17 -24z m2960 -7 c0 -6 -6 -5 -15 2 -8 7 -15 14
-15 16 0 2 7 1 15 -2 8 -4 15 -11 15 -16z m-3590 -12 c0 -3 -4 -8 -10 -11 -5
-3 -10 -1 -10 4 0 6 5 11 10 11 6 0 10 -2 10 -4z m500 -22 c0 -8 -4 -12 -10
-9 -5 3 -10 13 -10 21 0 8 5 12 10 9 6 -3 10 -13 10 -21z m2935 16 c11 9 12 7
8 -10 -3 -12 -11 -24 -17 -26 -7 -3 -10 -22 -8 -49 2 -25 0 -45 -4 -46 -5 0
-19 -2 -31 -3 -21 -2 -22 0 -16 38 6 44 13 60 13 32 0 -9 5 -14 10 -11 6 3 10
17 10 30 0 31 12 63 18 47 3 -10 7 -10 17 -2z m163 -15 c7 -6 -11 -34 -19 -29
-5 3 -9 0 -9 -5 0 -6 5 -11 10 -11 6 0 8 -13 5 -32 -7 -37 -15 -50 -15 -24 0
9 -4 15 -9 11 -5 -3 -11 5 -14 17 -3 20 -5 19 -20 -14 -18 -40 -36 -50 -38
-20 0 10 -3 12 -6 5 -5 -14 -33 -18 -33 -5 0 4 11 12 25 19 14 6 23 7 19 2 -3
-5 -1 -9 4 -9 9 0 32 52 32 71 0 5 -7 9 -15 9 -8 0 -15 5 -15 11 0 5 5 7 10 4
6 -3 13 0 16 9 4 12 11 12 37 4 18 -6 33 -12 35 -13z m-2208 0 c0 -12 -19 -12
-23 0 -4 9 -1 12 9 8 7 -3 14 -7 14 -8z m2100 -5 c0 -5 -8 -10 -17 -10 -15 0
-16 2 -3 10 19 12 20 12 20 0z m-3484 -28 c-14 -14 -17 -14 -14 -2 3 17 20 31
27 24 3 -2 -3 -12 -13 -22z m4109 18 c3 -5 -1 -10 -9 -10 -9 0 -16 5 -16 10 0
6 4 10 9 10 6 0 13 -4 16 -10z m-2775 -9 c0 -6 -4 -13 -10 -16 -5 -3 -10 1
-10 9 0 9 5 16 10 16 6 0 10 -4 10 -9z m74 -7 c5 -12 1 -14 -16 -8 -17 5 -20
3 -15 -10 4 -10 1 -16 -8 -16 -8 0 -15 5 -15 11 0 5 -6 7 -12 3 -10 -6 -9 -3
0 8 8 9 23 19 35 21 12 2 23 5 23 6 1 0 5 -6 8 -15z m-1005 -64 c0 -8 -6 0
-14 19 -8 18 -15 36 -15 40 1 13 29 -45 29 -59z m-118 20 c5 0 9 -5 9 -11 0
-8 -5 -8 -15 1 -8 7 -14 20 -14 29 1 13 2 13 6 -1 2 -10 9 -18 14 -18z m216 8
c-3 -8 -6 -5 -6 6 -1 11 2 17 5 13 3 -3 4 -12 1 -19z m1177 -9 c-8 -14 -24
-10 -24 6 0 9 6 12 15 9 8 -4 12 -10 9 -15z m867 4 c13 -17 13 -17 -6 -3 -11
8 -22 16 -24 17 -2 2 0 3 6 3 6 0 17 -8 24 -17z m-2211 -28 c0 -8 -4 -15 -10
-15 -5 0 -7 7 -4 15 4 8 8 15 10 15 2 0 4 -7 4 -15z m305 -75 c-9 -18 -19 -29
-22 -27 -3 3 2 16 11 29 9 12 17 36 17 53 2 29 2 29 6 3 2 -15 -3 -41 -12 -58z
m1255 70 c0 -5 -2 -10 -4 -10 -3 0 -8 5 -11 10 -3 6 -1 10 4 10 6 0 11 -4 11
-10z m-1442 -31 c-3 -8 -7 -3 -11 10 -4 17 -3 21 5 13 5 -5 8 -16 6 -23z
m1244 6 c-2 -11 -8 -22 -13 -23 -5 -2 -7 -8 -3 -13 3 -5 -4 -9 -16 -9 -16 0
-19 4 -12 18 5 9 8 25 6 35 -2 14 3 17 19 15 16 -2 21 -9 19 -23z m-1272 -20
c0 -5 -5 -3 -10 5 -5 8 -10 20 -10 25 0 6 5 3 10 -5 5 -8 10 -19 10 -25z m540
12 c0 -20 -50 -68 -68 -65 -9 2 -18 11 -20 19 -2 12 7 18 32 23 22 4 36 13 36
21 0 8 5 15 10 15 6 0 10 -6 10 -13z m2589 -20 c-1 -17 -2 -18 -6 -4 -2 9 -9
17 -14 17 -6 0 -7 5 -4 10 10 16 25 1 24 -23z m-2995 7 c9 -24 2 -26 -12 -4
-7 11 -8 20 -3 20 5 0 12 -7 15 -16z m798 -19 c-5 -28 14 -34 37 -12 11 10 12
4 7 -33 -3 -25 -11 -85 -16 -133 -5 -49 -11 -91 -13 -94 -3 -2 -9 20 -15 49
-5 29 -20 79 -32 110 -25 67 -24 104 3 100 12 -2 17 4 17 23 0 14 4 24 9 21 4
-3 6 -17 3 -31z m338 -61 c0 -8 -9 -14 -19 -14 -13 0 -18 6 -16 18 2 9 4 21 4
26 1 14 31 -15 31 -30z m-1561 -23 c-11 -24 -23 -41 -25 -38 -3 3 4 24 16 47
28 55 36 46 9 -9z m1841 7 c6 -18 16 -41 21 -50 8 -15 5 -18 -15 -18 -21 0
-26 6 -32 38 -4 20 -11 43 -17 50 -7 9 -4 12 11 12 13 0 24 -11 32 -32z m1624
13 c-10 -10 -23 -16 -28 -13 -5 3 2 11 15 18 33 18 36 17 13 -5z m-1911 -74
c-3 -5 -14 1 -25 13 -17 18 -18 24 -7 31 15 9 42 -28 32 -44z m-500 -2 c-3 -9
-8 -14 -10 -11 -3 3 -2 9 2 15 9 16 15 13 8 -4z m923 -19 c17 -13 15 -15 -26
-14 -55 0 -74 10 -40 19 38 11 45 10 66 -5z m2137 -2 c31 -17 31 -17 8 -25
-26 -10 -37 -6 -51 22 -13 24 -1 25 43 3z m-63 2 c0 -2 -7 -7 -16 -10 -8 -3
-12 -2 -9 4 6 10 25 14 25 6z m-3040 -63 c-10 -16 -11 -15 -6 7 3 14 6 32 7
40 1 8 4 5 6 -7 2 -12 -1 -30 -7 -40z m-21 15 c-9 -16 -14 -19 -17 -9 -2 7 2
17 9 22 20 13 21 11 8 -13z m3084 7 c4 -8 2 -17 -3 -20 -6 -4 -10 3 -10 14 0
25 6 27 13 6z m-2981 -33 c-6 -2 -8 -10 -5 -18 6 -16 -14 -19 -37 -4 -11 7 -9
11 13 19 15 6 28 18 28 28 1 15 2 15 6 -2 3 -10 1 -21 -5 -23z m2899 11 c-12
-20 -14 -14 -5 12 4 9 9 14 11 11 3 -2 0 -13 -6 -23z m186 -30 c19 -40 27 -72
26 -103 -2 -50 -21 -128 -37 -149 -5 -7 -11 -20 -13 -30 -3 -21 -17 -329 -16
-361 1 -14 -3 -30 -7 -35 -5 -6 -5 -17 0 -25 6 -9 4 -20 -5 -30 -18 -20 -19
-31 -3 -41 9 -6 6 -9 -12 -10 -14 -1 -29 -1 -34 0 -4 1 -6 -9 -2 -23 4 -15 1
-26 -7 -29 -9 -3 -9 -7 0 -19 7 -8 10 -18 7 -21 -9 -9 -36 21 -29 33 3 5 2 10
-3 10 -5 0 -9 6 -10 13 -4 60 -11 92 -21 95 -6 2 -11 13 -11 23 0 13 4 18 13
13 10 -6 10 -4 0 7 -7 7 -13 30 -13 51 0 33 3 38 23 39 12 0 16 3 9 6 -6 2
-10 9 -6 14 3 5 -1 9 -8 9 -8 0 -6 5 5 11 10 6 17 20 16 32 -2 36 0 44 16 44
8 0 15 -4 15 -8 0 -4 6 -9 14 -12 7 -3 13 0 13 6 -3 25 15 117 22 117 4 0 8 7
8 15 0 8 -4 15 -9 15 -5 0 -6 6 -1 13 4 6 9 22 11 35 2 16 -2 22 -18 22 -26 0
-26 20 0 27 l21 6 -20 14 c-18 12 -19 17 -8 34 8 13 20 19 34 16 18 -3 22 0
21 18 -1 13 -9 21 -20 21 -9 -1 -17 4 -17 9 0 6 17 9 37 8 20 0 27 1 15 4 -13
2 -23 9 -23 15 0 6 3 8 7 5 3 -4 12 1 19 11 16 20 18 36 4 27 -6 -3 -7 1 -4 9
6 16 -33 39 -49 29 -5 -3 -4 4 2 15 13 25 14 35 2 27 -5 -3 -12 -1 -16 4 -4 8
18 29 32 31 1 0 15 -26 30 -57z m-155 -25 c-18 -18 -15 -38 6 -39 9 0 12 -3 5
-5 -7 -3 -9 -12 -6 -20 5 -13 7 -13 14 -2 7 10 9 9 9 -5 0 -11 4 -15 12 -11 7
4 8 3 4 -4 -4 -8 0 -12 11 -13 15 0 14 -2 -4 -11 -30 -15 -29 -26 5 -39 25
-10 26 -11 9 -24 -12 -8 -14 -15 -7 -20 19 -11 0 -26 -20 -15 -14 8 -21 6 -28
-6 -20 -36 -40 29 -49 154 l-5 72 28 0 c22 0 25 -3 16 -12z m83 -19 c4 -17 4
-33 1 -36 -3 -4 -6 -1 -6 6 0 7 -10 9 -27 6 -16 -3 -21 -2 -13 1 23 10 30 27
18 41 -8 10 -6 13 5 13 9 0 18 -13 22 -31z m-2967 -14 c-3 -3 -22 -6 -42 -7
-28 -1 -43 -8 -60 -30 -20 -26 -24 -27 -35 -14 -8 9 -10 16 -5 16 4 0 -1 6
-11 14 -18 13 -16 15 25 20 55 7 124 12 129 9 2 -2 2 -5 -1 -8z m129 0 c0 -11
-4 -12 -11 -5 -18 18 -67 11 -88 -12 -11 -13 -18 -18 -15 -13 2 6 7 18 10 28
9 23 104 25 104 2z m-330 -40 c0 -8 -4 -15 -8 -15 -4 0 -5 -10 -2 -21 4 -15 2
-20 -7 -17 -24 8 -35 35 -21 52 17 20 38 21 38 1z m181 -93 l122 -4 0 -37 c0
-54 -21 -62 -147 -60 -99 1 -108 3 -136 28 -25 23 -77 98 -77 113 0 3 26 -4
58 -15 40 -14 93 -22 180 -25z m2977 38 c-3 -5 -11 -10 -16 -10 -6 0 -7 5 -4
10 3 6 11 10 16 10 6 0 7 -4 4 -10z m-2641 -79 c3 -4 -16 -11 -42 -14 -26 -4
-58 -9 -72 -12 -20 -5 -18 -2 10 14 36 21 95 28 104 12z m74 -46 c-9 -10 -118
-14 -113 -4 4 5 31 9 62 9 31 0 54 -2 51 -5z m65 -21 c-7 -19 -43 -34 -102
-44 -40 -7 -43 -6 -25 7 10 8 39 19 62 25 24 6 46 17 49 24 3 8 9 12 14 9 4
-3 5 -13 2 -21z m-635 -13 c21 -13 -36 -20 -177 -21 -69 0 -128 -3 -133 -6
-11 -7 -82 5 -76 12 3 2 81 7 174 10 93 4 171 8 173 10 7 7 25 4 39 -5z m-509
-25 c-10 -9 -179 -14 -179 -6 0 6 40 10 92 10 50 0 89 -2 87 -4z m44 -3 c-7
-2 -19 -2 -25 0 -7 3 -2 5 12 5 14 0 19 -2 13 -5z m-340 -20 c-7 -2 -21 -2
-30 0 -10 3 -4 5 12 5 17 0 24 -2 18 -5z m1410 -40 c-7 -2 -19 -2 -25 0 -7 3
-2 5 12 5 14 0 19 -2 13 -5z m31 -49 c18 -17 22 -54 5 -54 -5 0 -7 -4 -4 -10
3 -5 -1 -10 -9 -10 -9 0 -16 -4 -16 -10 0 -16 -19 -11 -40 10 -21 21 -19 42 3
36 7 -1 9 -1 5 1 -14 8 -9 23 7 23 18 0 20 16 3 23 -7 3 -3 6 9 6 12 1 29 -6
37 -15z m108 -46 c9 -7 26 -43 38 -79 18 -59 64 -129 84 -129 4 0 36 -13 71
-30 35 -16 68 -30 73 -30 4 0 27 -9 50 -20 22 -11 50 -20 60 -20 31 0 139 -76
172 -122 17 -23 27 -44 22 -46 -5 -1 -42 11 -83 29 -173 72 -179 74 -306 104
-75 17 -104 14 -81 -9 22 -21 70 -44 138 -66 96 -31 169 -61 223 -92 26 -16
52 -28 56 -28 9 0 46 -46 41 -51 -2 -2 9 -24 24 -48 l28 -43 -41 -82 c-22 -44
-43 -94 -47 -111 -11 -50 -20 -55 -64 -40 -21 7 -49 20 -62 28 -15 9 -32 12
-48 7 -15 -5 -18 -8 -8 -9 9 -1 29 -11 45 -24 15 -13 43 -29 61 -36 17 -8 32
-20 32 -27 0 -14 -3 -13 -75 17 -11 4 -36 15 -56 23 -33 13 -64 39 -214 178
-27 25 -47 49 -43 53 7 8 39 -18 111 -93 12 -12 27 -22 33 -22 6 0 19 -9 29
-20 10 -11 20 -18 23 -15 3 3 10 1 16 -4 6 -5 27 -1 49 9 l38 17 -48 29 c-41
25 -45 29 -25 32 12 2 22 10 22 17 0 11 8 10 34 -6 18 -10 40 -17 49 -14 16 7
30 56 19 66 -10 9 -215 84 -281 103 -30 9 -65 23 -79 32 -13 9 -33 14 -43 11
-11 -3 -19 0 -19 8 0 29 125 23 204 -10 39 -16 76 -20 76 -7 0 10 -50 57 -70
66 -31 13 -91 52 -130 84 -30 26 -40 41 -40 64 0 17 4 27 10 23 6 -3 10 1 10
9 0 9 -8 16 -18 16 -34 0 -62 48 -67 113 -2 20 1 27 10 23 11 -4 11 1 3 25 -5
16 -14 29 -19 29 -4 0 -6 7 -3 15 4 8 2 21 -4 28 -10 13 -12 87 -2 87 3 0 14
-6 22 -12z m-222 -8 c0 -5 -4 -10 -10 -10 -5 0 -10 5 -10 10 0 6 5 10 10 10 6
0 10 -4 10 -10z m-272 -57 c-10 -2 -28 -2 -40 0 -13 2 -5 4 17 4 22 1 32 -1
23 -4z m412 -15 c0 -20 -25 -15 -34 7 -3 9 2 13 15 12 11 -1 19 -9 19 -19z
m-22 -29 c2 -5 9 -6 14 -3 7 4 8 2 4 -5 -4 -6 -12 -9 -17 -5 -6 3 -27 6 -47 6
-34 0 -35 1 -17 14 19 14 57 10 63 -7z m-138 1 c12 -8 11 -10 -7 -10 -13 0
-23 5 -23 10 0 13 11 13 30 0z m119 -46 c21 -5 31 -12 31 -25 0 -11 5 -19 10
-19 7 0 7 -7 2 -17 -4 -10 -8 -25 -8 -33 2 -28 -33 -53 -62 -45 -15 4 -40 8
-56 9 -17 2 -32 8 -34 15 -2 7 2 12 9 10 42 -5 68 3 83 26 16 24 16 25 -9 25
-18 0 -24 -4 -19 -12 5 -9 4 -10 -4 -3 -6 6 -12 21 -14 35 -2 16 -12 27 -28
31 -33 9 54 12 99 3z m-96 -60 c9 -9 -4 -35 -14 -28 -5 3 -9 12 -9 20 0 14 12
19 23 8z m2622 -94 c3 -5 -1 -10 -10 -10 -9 0 -13 5 -10 10 3 6 8 10 10 10 2
0 7 -4 10 -10z m-85 -35 c0 -8 -2 -15 -4 -15 -2 0 -6 7 -10 15 -3 8 -1 15 4
15 6 0 10 -7 10 -15z m-406 -44 c4 -5 -3 -7 -14 -4 -23 6 -26 13 -6 13 8 0 17
-4 20 -9z m403 -53 c-2 -13 -4 -3 -4 22 0 25 2 35 4 23 2 -13 2 -33 0 -45z
m-312 -8 c3 -5 2 -10 -4 -10 -5 0 -13 5 -16 10 -3 6 -2 10 4 10 5 0 13 -4 16
-10z m-2015 -75 c0 -14 -14 -19 -47 -18 -7 1 -10 -4 -6 -11 3 -6 -4 -2 -16 9
-21 18 -21 20 -4 26 33 14 73 10 73 -6z m-885 -35 c-3 -5 -12 -7 -20 -3 -21 7
-19 13 6 13 11 0 18 -4 14 -10z m842 -26 c3 -8 -2 -23 -11 -32 -16 -16 -18
-16 -31 2 -11 14 -12 23 -4 33 15 18 38 16 46 -3z m113 -64 c0 -5 -4 -10 -10
-10 -5 0 -10 5 -10 10 0 6 5 10 10 10 6 0 10 -4 10 -10z m17 -4 c-3 -8 -1 -17
6 -19 7 -2 9 -8 4 -12 -11 -13 -28 10 -21 28 3 9 8 17 11 17 3 0 3 -6 0 -14z
m289 -36 c70 -24 97 -46 44 -36 -19 4 -44 8 -55 10 -27 3 -65 25 -65 36 0 14
9 13 76 -10z m-331 -46 c16 -4 51 -53 42 -60 -11 -9 -188 -29 -207 -23 -18 5
-20 8 -6 8 12 1 16 6 12 16 -4 11 3 17 24 21 16 4 28 11 27 17 -3 17 71 31
108 21z m1225 -138 c0 -19 -4 -23 -20 -19 -11 3 -20 14 -20 24 0 12 7 19 20
19 14 0 20 -7 20 -24z"/>
<path d="M1690 3995 c0 -8 2 -15 4 -15 2 0 6 7 10 15 3 8 1 15 -4 15 -6 0 -10
-7 -10 -15z"/>
<path d="M2110 3636 c0 -2 11 -6 25 -8 13 -3 22 -1 19 3 -5 9 -44 13 -44 5z"/>
<path d="M2235 3480 c-3 -6 1 -7 9 -4 18 7 21 14 7 14 -6 0 -13 -4 -16 -10z"/>
<path d="M1721 3732 c-7 -13 -11 -26 -8 -28 8 -8 29 25 25 38 -3 8 -9 4 -17
-10z"/>
<path d="M1235 3260 c-8 -13 3 -30 20 -30 11 0 25 20 25 36 0 9 -39 4 -45 -6z"/>
<path d="M1486 3101 c-9 -14 4 -41 20 -41 8 0 14 10 14 25 0 25 -23 35 -34 16z"/>
<path d="M1540 3085 c0 -16 6 -25 15 -25 9 0 15 9 15 25 0 16 -6 25 -15 25 -9
0 -15 -9 -15 -25z"/>
<path d="M1580 3091 c0 -12 6 -21 16 -21 9 0 14 7 12 17 -5 25 -28 28 -28 4z"/>
<path d="M1430 3081 c0 -15 6 -21 21 -21 14 0 19 5 17 17 -5 26 -38 29 -38 4z"/>
<path d="M1295 3000 c-3 -6 1 -7 9 -4 18 7 21 14 7 14 -6 0 -13 -4 -16 -10z"/>
<path d="M2581 2504 c0 -11 3 -14 6 -6 3 7 2 16 -1 19 -3 4 -6 -2 -5 -13z"/>
<path d="M1331 2244 c0 -11 3 -14 6 -6 3 7 2 16 -1 19 -3 4 -6 -2 -5 -13z"/>
<path d="M1292 2186 c-18 -35 -21 -50 -13 -60 9 -10 6 -13 -14 -12 -14 0 -25
-2 -25 -6 -1 -43 0 -44 15 -24 8 11 15 15 15 8 0 -18 28 -3 35 19 4 10 15 19
26 19 11 0 17 -4 14 -10 -3 -5 -1 -10 4 -10 6 0 12 5 12 10 1 6 2 16 3 23 3
17 -15 57 -26 57 -13 0 -10 -12 9 -32 10 -11 12 -18 4 -18 -6 0 -14 7 -17 15
-7 18 -34 20 -34 3 0 -6 -3 -8 -7 -4 -5 4 0 14 10 21 10 7 17 21 15 31 -2 11
-11 1 -26 -30z"/>
<path d="M1375 2180 c3 -5 8 -10 11 -10 2 0 4 5 4 10 0 6 -5 10 -11 10 -5 0
-7 -4 -4 -10z"/>
<path d="M1476 2145 c8 -37 14 -45 14 -19 0 10 -5 26 -10 34 -8 11 -9 7 -4
-15z"/>
<path d="M1481 2084 c0 -11 3 -14 6 -6 3 7 2 16 -1 19 -3 4 -6 -2 -5 -13z"/>
<path d="M3437 1985 c-4 -8 -2 -17 3 -20 6 -4 10 3 10 14 0 25 -6 27 -13 6z"/>
<path d="M4248 1063 c7 -3 16 -2 19 1 4 3 -2 6 -13 5 -11 0 -14 -3 -6 -6z"/>
<path d="M4260 1040 c-8 -6 -10 -10 -5 -10 6 0 3 -5 -5 -10 -13 -8 -13 -10 1
-10 19 0 33 -26 19 -35 -7 -4 -7 -13 0 -24 5 -10 6 -21 3 -25 -3 -3 -1 -6 5
-6 14 0 14 0 17 63 2 51 -11 72 -35 57z"/>
<path d="M4237 1469 c7 -7 15 -10 18 -7 3 3 -2 9 -12 12 -14 6 -15 5 -6 -5z"/>
<path d="M1400 1399 c0 -5 5 -7 10 -4 6 3 10 8 10 11 0 2 -4 4 -10 4 -5 0 -10
-5 -10 -11z"/>
<path d="M2370 365 c0 -13 -4 -14 -20 -5 -14 8 -20 8 -20 0 0 -6 8 -13 18 -17
9 -3 25 -13 35 -21 10 -9 17 -11 17 -4 0 6 -4 13 -10 17 -5 3 -7 12 -4 19 3 8
1 17 -5 21 -6 3 -11 -1 -11 -10z"/>
<path d="M2310 306 c0 -8 9 -18 21 -21 31 -10 33 0 4 19 -21 14 -25 14 -25 2z"/>
<path d="M1876 411 c-4 -5 3 -7 14 -4 23 6 26 13 6 13 -8 0 -17 -4 -20 -9z"/>
<path d="M1188 4553 c-10 -2 -18 -9 -18 -14 0 -14 16 -11 30 6 7 8 11 14 9 14
-2 -1 -12 -3 -21 -6z"/>
<path d="M188 4496 c-4 -20 -1 -23 19 -21 13 1 26 -2 29 -6 9 -15 24 -10 24 7
0 43 -64 61 -72 20z"/>
<path d="M3114 4480 c3 -40 16 -51 16 -12 0 17 -4 33 -9 36 -5 3 -8 -7 -7 -24z"/>
<path d="M3202 4485 c0 -16 2 -22 5 -12 2 9 2 23 0 30 -3 6 -5 -1 -5 -18z"/>
<path d="M1278 4493 c7 -3 16 -2 19 1 4 3 -2 6 -13 5 -11 0 -14 -3 -6 -6z"/>
<path d="M3220 4480 c0 -11 2 -20 4 -20 2 0 6 9 9 20 3 11 1 20 -4 20 -5 0 -9
-9 -9 -20z"/>
<path d="M1686 4482 c-3 -5 17 -9 45 -9 27 -1 49 2 49 5 0 10 -88 13 -94 4z"/>
<path d="M2979 4463 l-24 -28 28 24 c25 23 32 31 24 31 -2 0 -14 -12 -28 -27z"/>
<path d="M3010 4454 c0 -13 42 -54 56 -54 5 0 2 5 -6 10 -11 7 -11 10 -2 10 7
0 10 5 7 11 -4 5 -12 8 -18 6 -7 -2 -17 3 -24 12 -7 9 -13 11 -13 5z"/>
<path d="M213 4443 c4 -6 2 -13 -3 -15 -7 -2 -6 -10 3 -21 12 -17 13 -16 12 7
-1 14 -5 29 -10 33 -4 5 -5 3 -2 -4z"/>
<path d="M3120 4351 c0 -5 7 -11 15 -15 25 -9 17 -24 -17 -31 -18 -4 -42 -14
-53 -22 -19 -13 -19 -14 5 -11 14 2 35 9 47 16 36 20 68 14 97 -19 15 -17 31
-28 34 -24 4 3 -8 17 -26 31 -34 27 -41 44 -17 44 8 0 15 4 15 10 0 6 -9 6
-24 0 -18 -7 -28 -4 -44 11 -23 21 -32 24 -32 10z"/>
<path d="M36 4311 c-4 -7 -5 -15 -2 -18 9 -9 19 4 14 18 -4 11 -6 11 -12 0z"/>
<path d="M38 4283 c-10 -3 -18 -13 -18 -23 0 -10 -4 -21 -8 -24 -4 -2 -9 -22
-10 -44 l-3 -39 60 1 c33 0 63 4 67 9 4 4 2 7 -4 7 -7 0 -12 5 -12 11 0 7 -8
17 -17 24 -14 11 -15 15 -4 28 20 25 -14 58 -51 50z"/>
<path d="M3037 4184 c-16 -19 -25 -34 -20 -33 4 0 21 16 36 35 16 19 25 34 20
33 -4 0 -21 -16 -36 -35z"/>
<path d="M547 4204 c-3 -3 -3 -13 0 -21 5 -12 7 -12 14 -1 15 23 4 40 -14 22z"/>
<path d="M585 4163 c-4 -17 -2 -29 4 -31 6 -2 9 -8 5 -13 -3 -5 0 -9 5 -9 6 0
11 18 11 40 0 46 -15 53 -25 13z"/>
<path d="M3115 4163 c-7 -28 -2 -36 20 -39 10 -2 15 7 15 26 0 37 -26 47 -35
13z"/>
<path d="M4253 4115 c0 -27 2 -38 4 -22 2 15 2 37 0 50 -2 12 -4 0 -4 -28z"/>
<path d="M50 4076 c0 -2 7 -7 16 -10 8 -3 12 -2 9 4 -6 10 -25 14 -25 6z"/>
<path d="M124 4052 c4 -7 14 -12 22 -12 8 0 14 -4 14 -10 0 -9 -80 -15 -138
-10 -22 1 -23 -1 -20 -61 3 -52 7 -64 27 -78 24 -15 24 -15 19 7 -3 12 -3 22
2 22 4 0 11 -11 14 -25 5 -20 27 -33 39 -23 1 2 13 -5 27 -15 31 -21 37 -21
43 1 3 9 5 4 5 -13 -1 -54 -1 -54 57 -49 34 3 55 0 55 -6 0 -5 -20 -10 -45
-10 -40 0 -46 -3 -61 -32 -9 -18 -21 -36 -26 -39 -6 -4 -7 -33 -3 -73 6 -51
11 -66 21 -62 8 3 14 1 14 -4 0 -6 -7 -10 -15 -10 -8 0 -15 -4 -15 -10 0 -5
12 -9 26 -8 20 2 24 7 21 23 -3 11 -8 36 -11 55 -5 28 -5 31 3 13 6 -13 17
-23 26 -23 8 0 15 -4 15 -10 0 -5 -4 -10 -10 -10 -5 0 -10 -7 -10 -15 0 -22
21 -18 27 5 6 22 22 27 24 8 2 -25 -3 -53 -12 -64 -18 -23 -11 -106 11 -128 7
-7 10 -4 10 8 0 12 5 16 16 12 9 -3 18 -6 20 -6 12 0 2 -49 -11 -54 -19 -7 -9
-33 16 -39 16 -4 18 -11 13 -51 -6 -38 -4 -46 9 -46 8 0 22 -3 31 -6 13 -5 16
2 16 36 0 29 6 48 17 57 17 14 17 14 1 9 -12 -3 -18 0 -18 9 0 26 2 30 11 27
5 -1 9 2 9 8 0 5 -4 10 -10 10 -5 0 -10 16 -10 35 0 43 -19 69 -35 50 -5 -7
-21 -16 -35 -20 -25 -6 -25 -6 -5 12 12 10 24 27 28 37 7 17 6 17 -10 5 -10
-8 -21 -18 -25 -23 -9 -13 -48 -18 -48 -6 0 6 8 10 18 10 9 0 26 8 37 16 17
13 18 17 5 27 -8 7 -21 20 -29 30 -19 25 5 19 32 -7 24 -23 39 -6 30 36 -3 17
-1 28 5 28 12 0 27 38 24 57 -2 6 2 14 8 18 5 3 10 19 10 34 0 31 28 132 40
145 5 4 19 -7 31 -27 19 -28 29 -34 54 -33 16 0 33 8 36 16 4 10 13 1 27 -30
11 -25 16 -47 11 -51 -10 -6 -7 -44 4 -55 13 -13 7 -23 -10 -18 -12 4 -14 3
-6 -3 6 -4 14 -20 18 -36 5 -20 3 -28 -9 -33 -14 -5 -14 -9 -4 -22 7 -8 12
-17 11 -19 -8 -10 -1 -42 10 -46 9 -3 12 9 11 47 -1 28 -2 128 -3 221 -1 137
-4 174 -17 190 -14 19 -16 19 -28 3 -7 -10 -25 -18 -40 -18 -16 0 -26 -5 -26
-15 0 -10 -10 -15 -29 -15 -16 0 -31 -5 -33 -12 -6 -18 -70 47 -66 68 3 16 -5
19 -49 21 -40 2 -57 8 -77 28 -14 14 -37 25 -51 25 -14 0 -25 4 -25 8 0 5 -6
9 -12 9 -7 0 -22 4 -32 9 -14 5 -17 4 -12 -4z m266 -300 c0 -5 -7 -17 -16 -28
-14 -17 -15 -17 -10 -1 3 10 6 23 6 28 0 5 5 9 10 9 6 0 10 -4 10 -8z m-165
-46 c18 -13 18 -14 -2 -24 -23 -13 -33 -7 -33 20 0 22 10 23 35 4z m60 -34
c-3 -3 -11 0 -18 7 -9 10 -8 11 6 5 10 -3 15 -9 12 -12z m-20 -30 c-3 -3 -11
0 -18 7 -9 10 -8 11 6 5 10 -3 15 -9 12 -12z m87 -4 c-2 -10 -5 -18 -7 -18 -1
0 -9 8 -18 18 -14 16 -14 17 7 17 17 0 22 -5 18 -17z m-30 -30 c-7 -7 -12 -8
-12 -2 0 14 12 26 19 19 2 -3 -1 -11 -7 -17z"/>
<path d="M450 3940 c8 -5 22 -10 30 -10 13 0 13 1 0 10 -8 5 -22 10 -30 10
-13 0 -13 -1 0 -10z"/>
<path d="M425 3920 c-8 -13 15 -24 27 -12 6 6 4 11 -6 15 -8 3 -18 2 -21 -3z"/>
<path d="M991 3874 c0 -11 3 -14 6 -6 3 7 2 16 -1 19 -3 4 -6 -2 -5 -13z"/>
<path d="M1080 3855 c0 -8 7 -15 15 -15 9 0 12 6 9 15 -4 8 -10 15 -15 15 -5
0 -9 -7 -9 -15z"/>
<path d="M1033 3846 c0 -8 6 -12 14 -9 7 3 10 9 7 14 -8 14 -21 11 -21 -5z"/>
<path d="M993 3810 c0 -25 2 -35 4 -22 2 12 2 32 0 45 -2 12 -4 2 -4 -23z"/>
<path d="M127 3823 c-4 -3 -7 -11 -7 -17 0 -6 5 -5 12 2 6 6 9 14 7 17 -3 3
-9 2 -12 -2z"/>
<path d="M140 3720 c0 -5 5 -10 11 -10 5 0 7 5 4 10 -3 6 -8 10 -11 10 -2 0
-4 -4 -4 -10z"/>
<path d="M115 3670 c3 -5 8 -10 11 -10 2 0 4 5 4 10 0 6 -5 10 -11 10 -5 0 -7
-4 -4 -10z"/>
<path d="M135 3620 c3 -5 8 -10 11 -10 2 0 4 5 4 10 0 6 -5 10 -11 10 -5 0 -7
-4 -4 -10z"/>
<path d="M373 3557 c0 -12 -3 -30 -8 -41 -6 -13 -2 -23 13 -35 11 -9 22 -25
25 -36 3 -11 5 -6 4 12 -1 17 -5 29 -9 27 -4 -3 -8 15 -8 40 0 25 -4 47 -9 50
-4 3 -8 -5 -8 -17z"/>
<path d="M560 3530 c0 -19 3 -21 12 -12 9 9 9 15 0 24 -9 9 -12 7 -12 -12z"/>
<path d="M500 3510 c0 -11 2 -20 4 -20 2 0 6 9 9 20 3 11 1 20 -4 20 -5 0 -9
-9 -9 -20z"/>
<path d="M204 3467 c-6 -16 24 -77 37 -77 10 0 -7 70 -20 83 -7 7 -12 5 -17
-6z"/>
<path d="M596 3472 c-3 -5 -1 -38 3 -73 8 -63 11 -58 14 29 2 42 -6 62 -17 44z"/>
<path d="M542 3420 c0 -14 2 -19 5 -12 2 6 2 18 0 25 -3 6 -5 1 -5 -13z"/>
<path d="M400 3396 c0 -19 17 -29 25 -16 3 5 1 10 -5 10 -6 0 -8 5 -5 10 3 6
1 10 -4 10 -6 0 -11 -6 -11 -14z"/>
<path d="M526 3383 c-3 -4 -6 -22 -6 -42 0 -24 3 -32 9 -22 5 7 13 11 19 7 5
-3 12 0 15 7 5 15 -27 59 -37 50z"/>
<path d="M236 3313 c9 -48 9 -49 32 -27 17 17 17 22 5 44 l-14 25 4 -28 c3
-21 2 -25 -9 -16 -7 6 -10 17 -7 25 3 8 0 14 -6 14 -8 0 -10 -12 -5 -37z"/>
<path d="M601 3313 c0 -4 4 -17 9 -28 8 -19 9 -19 9 2 1 12 -3 25 -9 28 -5 3
-10 3 -9 -2z"/>
<path d="M492 3288 c6 -18 28 -21 28 -4 0 9 -7 16 -16 16 -9 0 -14 -5 -12 -12z"/>
<path d="M491 3194 c0 -11 3 -14 6 -6 3 7 2 16 -1 19 -3 4 -6 -2 -5 -13z"/>
<path d="M1034 3184 c3 -9 6 -20 6 -25 0 -5 11 -9 25 -9 20 0 25 5 25 25 0 21
-5 25 -31 25 -24 0 -30 -3 -25 -16z"/>
<path d="M378 3173 c7 -3 16 -2 19 1 4 3 -2 6 -13 5 -11 0 -14 -3 -6 -6z"/>
<path d="M370 3130 c-8 -14 -8 -26 0 -41 7 -11 9 -27 6 -35 -3 -8 -3 -21 0
-29 13 -32 21 -12 22 55 1 70 -8 87 -28 50z"/>
<path d="M1038 3133 c-10 -2 -18 -13 -18 -24 0 -16 5 -18 28 -13 37 9 42 13
42 30 0 14 -18 16 -52 7z"/>
<path d="M490 3116 c0 -8 5 -18 10 -21 6 -3 10 3 10 14 0 12 -4 21 -10 21 -5
0 -10 -6 -10 -14z"/>
<path d="M326 3088 c-15 -14 -17 -21 -8 -30 16 -16 35 3 30 29 -3 19 -3 19
-22 1z"/>
<path d="M270 3026 c0 -2 7 -6 15 -10 8 -3 15 -1 15 4 0 6 -7 10 -15 10 -8 0
-15 -2 -15 -4z"/>
<path d="M296 2982 c-3 -6 -1 -14 5 -17 15 -10 25 3 12 16 -7 7 -13 7 -17 1z"/>
<path d="M340 2979 c0 -5 5 -7 10 -4 6 3 10 8 10 11 0 2 -4 4 -10 4 -5 0 -10
-5 -10 -11z"/>
<path d="M280 2946 c0 -2 7 -7 16 -10 8 -3 12 -2 9 4 -6 10 -25 14 -25 6z"/>
<path d="M466 2919 c-14 -14 -17 -22 -9 -30 8 -8 15 -2 26 20 18 35 11 39 -17
10z"/>
<path d="M893 2923 c-7 -2 -13 -11 -13 -19 0 -12 4 -12 20 -2 31 20 26 35 -7
21z"/>
<path d="M160 2909 c0 -5 5 -7 10 -4 6 3 10 8 10 11 0 2 -4 4 -10 4 -5 0 -10
-5 -10 -11z"/>
<path d="M233 2899 c4 -13 7 -30 7 -37 0 -10 4 -9 16 2 20 20 14 50 -10 54
-15 3 -18 0 -13 -19z"/>
<path d="M285 2900 c2 -24 10 -33 35 -37 26 -4 25 15 -2 38 -27 24 -35 24 -33
-1z"/>
<path d="M361 2913 c0 -5 4 -17 9 -28 8 -18 9 -17 9 8 1 15 -3 27 -9 27 -5 0
-10 -3 -9 -7z"/>
<path d="M310 2851 c0 -18 12 -41 21 -41 15 0 10 37 -6 44 -8 3 -15 1 -15 -3z"/>
<path d="M265 2840 c-3 -5 -1 -10 4 -10 6 0 11 5 11 10 0 6 -2 10 -4 10 -3 0
-8 -4 -11 -10z"/>
<path d="M393 2810 c0 -25 2 -35 4 -22 2 12 2 32 0 45 -2 12 -4 2 -4 -23z"/>
<path d="M335 2780 c3 -5 8 -10 11 -10 2 0 4 5 4 10 0 6 -5 10 -11 10 -5 0 -7
-4 -4 -10z"/>
<path d="M390 2724 c0 -8 5 -12 10 -9 6 3 10 10 10 16 0 5 -4 9 -10 9 -5 0
-10 -7 -10 -16z"/>
<path d="M740 2695 c7 -9 15 -13 17 -11 7 7 -7 26 -19 26 -6 0 -6 -6 2 -15z"/>
<path d="M384 2689 c-3 -6 2 -19 12 -30 19 -18 19 -18 19 11 0 30 -17 40 -31
19z"/>
<path d="M401 2600 c1 -19 3 -27 6 -17 2 9 10 17 18 17 7 0 16 7 19 16 6 14 4
15 -10 4 -13 -12 -17 -11 -25 1 -6 10 -8 4 -8 -21z"/>
<path d="M2211 2573 c18 -21 51 -56 71 -78 20 -22 64 -73 98 -112 33 -40 68
-73 76 -73 8 0 12 5 9 10 -3 6 -13 10 -21 10 -8 0 -22 16 -31 35 -9 19 -20 35
-24 35 -5 0 -34 35 -65 78 -63 86 -109 132 -132 132 -11 0 -5 -12 19 -37z"/>
<path d="M3452 2573 c3 -11 1 -27 -3 -36 -6 -10 -5 -18 1 -22 5 -3 10 2 10 12
0 15 2 16 10 3 8 -11 10 -7 8 19 -2 19 -9 37 -17 39 -10 3 -12 -1 -9 -15z"/>
<path d="M545 2560 c-3 -5 -2 -10 4 -10 5 0 13 5 16 10 3 6 2 10 -4 10 -5 0
-13 -4 -16 -10z"/>
<path d="M3410 2559 c0 -5 5 -7 10 -4 6 3 10 8 10 11 0 2 -4 4 -10 4 -5 0 -10
-5 -10 -11z"/>
<path d="M393 2541 c0 -11 5 -18 9 -15 4 3 5 11 1 19 -7 21 -12 19 -10 -4z"/>
<path d="M1930 2533 c1 -15 25 -39 110 -108 47 -38 100 -85 119 -105 21 -22
36 -30 38 -23 7 20 -46 76 -136 144 -46 35 -95 72 -108 82 -12 10 -23 15 -23
10z"/>
<path d="M3447 2481 c-4 -17 -3 -21 5 -13 5 5 8 16 6 23 -3 8 -7 3 -11 -10z"/>
<path d="M3411 2446 c0 -10 6 -24 16 -31 9 -7 13 -17 9 -24 -6 -9 -11 -9 -21
-1 -11 9 -14 0 -17 -46 -1 -31 0 -61 4 -67 6 -9 8 -8 8 1 0 20 40 73 50 67 4
-3 10 2 14 10 3 9 -1 15 -11 15 -12 0 -13 3 -4 14 8 10 8 20 -4 42 -8 16 -15
23 -15 17 0 -19 -18 -15 -23 5 -4 15 -5 15 -6 -2z"/>
<path d="M385 2430 c-3 -6 -3 -19 0 -31 6 -19 8 -20 26 -3 11 10 19 12 19 6 0
-7 -4 -12 -9 -12 -5 0 -11 -16 -13 -35 -5 -47 8 -45 23 4 8 29 8 43 0 60 -12
22 -36 28 -46 11z"/>
<path d="M3538 2363 c7 -3 16 -2 19 1 4 3 -2 6 -13 5 -11 0 -14 -3 -6 -6z"/>
<path d="M304 2316 c-3 -9 -10 -13 -15 -10 -5 3 -9 -3 -9 -12 0 -10 3 -14 6
-11 4 4 15 -3 26 -15 21 -25 23 -24 31 22 7 35 7 35 -9 10 -14 -24 -15 -24
-11 -3 6 27 -10 42 -19 19z"/>
<path d="M3200 2312 c0 -14 26 -22 67 -22 23 0 33 4 31 13 -5 14 -98 23 -98 9z"/>
<path d="M3372 2300 c0 -14 2 -19 5 -12 2 6 2 18 0 25 -3 6 -5 1 -5 -13z"/>
<path d="M3432 2300 c-16 -27 -15 -32 6 -21 9 5 25 12 35 15 18 6 24 26 6 26
-5 0 -7 -6 -3 -12 6 -10 4 -10 -7 0 -18 16 -22 15 -37 -8z"/>
<path d="M190 2287 c0 -8 10 -19 23 -25 19 -10 17 -11 -15 -6 -38 6 -49 -4
-25 -24 22 -18 62 -11 74 14 12 26 5 36 -34 48 -16 5 -23 3 -23 -7z"/>
<path d="M380 2257 c0 -21 7 -36 20 -45 23 -14 24 -11 9 41 -12 46 -29 48 -29
4z"/>
<path d="M3080 2286 c0 -9 50 -12 62 -5 8 6 -1 9 -24 9 -21 0 -38 -2 -38 -4z"/>
<path d="M3260 2276 c0 -2 7 -6 15 -10 8 -3 15 -1 15 4 0 6 -7 10 -15 10 -8 0
-15 -2 -15 -4z"/>
<path d="M2838 2258 c9 -9 15 -9 24 0 9 9 7 12 -12 12 -19 0 -21 -3 -12 -12z"/>
<path d="M3373 2252 c-14 -9 -21 -97 -7 -97 5 0 8 12 6 27 -2 14 2 29 7 33 6
3 11 -2 11 -12 0 -13 5 -11 20 12 14 22 16 31 7 37 -15 10 -29 10 -44 0z"/>
<path d="M2280 2240 c0 -5 16 -10 36 -10 21 0 33 4 29 10 -3 6 -19 10 -36 10
-16 0 -29 -4 -29 -10z"/>
<path d="M2807 2185 c3 -27 6 -63 6 -80 -1 -36 11 -45 55 -45 23 0 31 4 26 12
-5 8 -2 9 12 3 25 -10 138 -27 189 -27 43 0 77 5 111 16 17 5 22 3 20 -11 0
-10 6 -18 14 -18 8 0 14 6 12 13 -1 7 8 12 20 12 19 0 20 -2 8 -11 -12 -8 -10
-10 10 -8 43 2 46 0 43 -38 -3 -45 3 -34 12 20 3 21 9 35 13 33 5 -3 9 9 10
25 3 38 -6 37 -20 -2 -7 -22 -14 -27 -21 -20 -6 6 -19 11 -28 11 -15 0 -16 5
-9 28 l8 29 -72 -13 c-39 -7 -86 -18 -104 -24 -23 -9 -45 -9 -80 -1 -26 6 -69
13 -97 17 -108 13 -115 18 -139 109 -3 11 -3 -2 1 -30z"/>
<path d="M1930 2183 c0 -5 10 -19 23 -31 28 -27 56 -30 30 -4 -30 30 -53 45
-53 35z"/>
<path d="M2098 2161 c11 -6 10 -10 -5 -16 -10 -5 -23 -7 -29 -6 -7 1 -14 -5
-18 -14 -3 -8 -1 -15 4 -15 5 0 11 -9 15 -19 7 -22 25 -19 60 8 20 16 23 51 4
51 -6 0 -7 5 -4 10 3 6 -4 10 -17 10 -16 0 -19 -3 -10 -9z"/>
<path d="M201 2141 c-8 -6 -9 -11 -3 -15 6 -3 14 -1 17 5 9 14 2 20 -14 10z"/>
<path d="M140 2114 c0 -8 -4 -12 -10 -9 -5 3 -10 2 -10 -3 0 -17 27 -21 46 -8
9 7 14 18 10 24 -11 17 -36 15 -36 -4z"/>
<path d="M2657 2107 c-4 -11 8 -16 50 -21 31 -4 58 -4 61 -1 11 11 -14 24 -59
30 -35 5 -48 3 -52 -8z"/>
<path d="M2605 2100 c-3 -5 1 -10 10 -10 9 0 13 5 10 10 -3 6 -8 10 -10 10 -2
0 -7 -4 -10 -10z"/>
<path d="M1930 2090 c0 -5 7 -7 15 -4 8 4 15 8 15 10 0 2 -7 4 -15 4 -8 0 -15
-4 -15 -10z"/>
<path d="M1990 2091 c0 -5 7 -12 16 -15 14 -5 15 -4 4 9 -14 17 -20 19 -20 6z"/>
<path d="M2640 2010 c0 -5 5 -10 11 -10 5 0 7 5 4 10 -3 6 -8 10 -11 10 -2 0
-4 -4 -4 -10z"/>
<path d="M2740 2016 c0 -2 9 -6 20 -9 11 -3 20 -1 20 4 0 5 -9 9 -20 9 -11 0
-20 -2 -20 -4z"/>
<path d="M2675 1990 c-4 -6 -10 -8 -15 -5 -4 3 -10 -8 -12 -24 -6 -41 44 -72
81 -50 9 5 29 14 45 20 l30 10 -30 28 c-23 23 -33 27 -49 18 -13 -7 -20 -7
-23 2 -5 14 -19 14 -27 1z"/>
<path d="M3243 1971 c-36 -18 -44 -36 -13 -28 14 4 22 -2 29 -22 7 -18 10 -21
10 -8 1 16 3 17 16 3 18 -17 20 -30 4 -20 -8 5 -10 -1 -5 -19 5 -20 2 -27 -14
-32 -11 -3 -20 -11 -20 -16 0 -6 5 -7 10 -4 6 3 10 -1 10 -10 0 -11 -5 -15
-14 -12 -19 8 -26 -22 -26 -121 0 -63 -3 -83 -12 -79 -7 2 -12 11 -10 21 2 9
-2 16 -7 16 -16 0 -61 -22 -61 -30 0 -14 41 -44 48 -35 16 22 32 14 32 -16 0
-43 -52 -170 -137 -336 -75 -147 -88 -181 -35 -94 19 30 40 51 55 55 14 3 28
14 32 25 3 10 17 31 30 47 l25 29 0 -25 c-1 -131 -67 -297 -160 -404 -57 -65
-158 -164 -209 -205 -109 -85 -155 -131 -143 -143 8 -8 19 -2 40 22 16 17 41
39 54 48 14 10 44 30 68 45 46 31 163 147 189 187 8 14 21 29 28 33 7 4 13 13
13 20 0 7 9 18 20 25 11 7 20 21 20 32 0 10 8 25 18 32 22 16 67 88 55 88 -4
0 -1 6 7 13 8 7 15 18 16 25 4 44 4 45 18 33 12 -10 16 -5 26 23 6 19 19 37
28 39 13 3 10 7 -10 15 -16 6 -28 14 -28 17 0 3 12 10 28 16 25 10 26 11 8 24
-23 17 -13 35 22 36 l27 1 -27 10 c-43 15 -34 35 20 44 38 6 42 9 20 12 -45 6
-32 19 25 28 l52 7 -45 9 c-81 16 -90 18 -90 28 0 6 19 11 43 11 29 2 34 3 15
6 -31 5 -39 23 -10 23 9 0 24 5 32 11 13 9 13 10 -2 6 -9 -3 -29 -2 -45 2
l-28 8 35 10 35 9 -32 7 c-52 10 -32 34 29 36 57 1 94 21 40 21 -18 0 -32 5
-32 11 0 8 -5 7 -15 -1 -9 -7 -18 -10 -22 -7 -3 4 -14 2 -24 -4 -16 -8 -19 -6
-19 10 0 11 6 21 12 23 10 4 8 14 -4 44 -10 21 -21 56 -27 77 l-9 37 39 0 c24
0 39 5 39 13 0 8 4 7 11 -3 8 -11 9 -2 5 35 -13 112 -17 127 -36 122 -11 -3
-17 1 -17 12 0 57 -1 57 -50 32z m94 -173 c-3 -8 -6 -5 -6 6 -1 11 2 17 5 13
3 -3 4 -12 1 -19z m-97 -470 c-1 -35 -3 -40 -11 -25 -10 17 -5 67 6 67 3 0 5
-19 5 -42z m-5 -188 c-3 -5 -10 -10 -16 -10 -5 0 -9 5 -9 10 0 6 7 10 16 10 8
0 12 -4 9 -10z"/>
<path d="M3320 1950 c0 -5 5 -10 10 -10 6 0 10 5 10 10 0 6 -4 10 -10 10 -5 0
-10 -4 -10 -10z"/>
<path d="M2375 1930 c3 -5 8 -10 11 -10 2 0 4 5 4 10 0 6 -5 10 -11 10 -5 0
-7 -4 -4 -10z"/>
<path d="M2840 1930 c-13 -8 -12 -10 3 -10 9 0 17 5 17 10 0 12 -1 12 -20 0z"/>
<path d="M2110 1915 c0 -5 5 -17 10 -25 5 -8 10 -10 10 -5 0 6 -5 17 -10 25
-5 8 -10 11 -10 5z"/>
<path d="M2381 1880 c6 -16 16 -30 22 -30 6 0 7 -3 4 -7 -16 -15 15 -31 52
-26 l37 5 -2 -43 c-2 -24 -3 -47 -3 -51 -1 -4 -13 -3 -27 2 -32 13 -31 13 -31
-7 0 -10 8 -28 19 -40 11 -12 17 -26 14 -32 -7 -11 19 -59 43 -79 14 -11 14
-14 1 -22 -9 -5 -19 -5 -27 2 -9 7 -13 7 -13 -1 0 -8 -6 -7 -16 3 -14 15 -34
14 -34 -1 0 -4 3 -4 6 0 6 5 44 -28 44 -39 0 -3 7 -12 15 -20 13 -14 15 -13
15 10 0 14 4 26 9 26 6 0 6 -12 1 -29 -4 -16 -7 -31 -5 -33 2 -2 -9 -4 -23 -4
-38 -2 -56 -8 -62 -19 -3 -6 2 -10 12 -10 9 0 26 -11 37 -24 22 -25 28 -61 11
-61 -5 0 -10 -7 -10 -15 0 -8 4 -15 10 -15 16 0 -1 -30 -19 -31 -13 0 -14 -1
-1 -7 8 -4 17 -16 18 -27 3 -16 1 -18 -9 -7 -15 14 -33 16 -24 3 3 -6 -6 -6
-24 -1 -28 8 -28 7 -21 -19 4 -14 12 -25 19 -23 6 1 11 -2 11 -8 0 -5 9 -10
20 -10 23 0 41 -37 33 -68 -5 -20 -1 -21 61 -19 48 1 66 6 66 16 0 8 6 11 15
7 8 -3 15 -1 15 4 0 6 -6 10 -13 10 -9 0 -13 12 -13 33 1 18 -1 44 -5 58 -7
23 -7 23 -8 2 -1 -22 -21 -44 -21 -24 0 6 -7 11 -16 11 -9 0 -14 7 -12 18 1 9
-1 23 -6 31 -5 8 -4 16 4 21 7 4 9 16 6 26 -3 11 -8 34 -10 51 l-3 33 28 -17
c23 -14 29 -24 29 -52 0 -59 8 -29 13 51 6 81 12 102 28 93 5 -4 9 -2 9 4 0 5
10 11 23 13 12 2 20 8 17 13 -3 6 -9 9 -14 7 -4 -1 -14 2 -21 8 -10 8 -14 7
-18 -2 -3 -7 -6 -4 -6 7 0 11 3 27 9 35 6 9 5 17 -3 22 -9 6 -9 10 2 17 9 6
10 10 1 13 -8 2 -12 41 -13 121 -1 64 -5 117 -9 117 -3 0 -5 11 -4 25 2 13 0
22 -5 19 -4 -2 -24 -5 -44 -6 -34 -1 -51 -18 -18 -18 14 0 13 -4 -6 -21 -14
-13 -21 -29 -18 -40 7 -27 -6 -23 -20 6 -6 14 -7 25 -2 25 5 0 8 10 8 23 -1
16 -2 18 -6 5 -5 -22 -12 -23 -27 -3 -6 8 -24 16 -39 17 -16 1 -33 8 -39 15
-19 23 -27 14 -17 -17z m215 -99 c-12 -13 -13 -20 -6 -23 15 -5 23 -65 10 -73
-5 -3 -7 -13 -3 -23 3 -10 -1 -8 -12 6 -9 13 -23 21 -31 18 -17 -6 -17 -1 -3
25 7 15 7 24 0 33 -13 15 -4 49 10 40 5 -3 17 0 26 5 26 15 28 13 9 -8z m-66
-57 c0 -24 -4 -44 -10 -44 -5 0 -10 23 -10 51 0 31 4 48 10 44 6 -3 10 -26 10
-51z m-65 -14 c4 -6 11 -8 16 -5 5 4 9 1 9 -4 0 -16 -19 -13 -36 4 -9 8 -11
15 -5 15 5 0 13 -5 16 -10z m109 -189 c10 -15 -18 -19 -32 -5 -11 12 -9 14 7
14 11 0 22 -4 25 -9z m-61 -221 c-7 -28 -13 -25 -13 6 0 14 4 23 9 20 5 -3 7
-15 4 -26z m-6 -142 c-3 -8 -6 -5 -6 6 -1 11 2 17 5 13 3 -3 4 -12 1 -19z m3
-38 c0 -5 -4 -10 -10 -10 -5 0 -10 5 -10 10 0 6 5 10 10 10 6 0 10 -4 10 -10z"/>
<path d="M2300 1862 c0 -4 9 -8 20 -9 11 -1 20 2 20 8 0 5 -9 9 -20 9 -11 0
-20 -4 -20 -8z"/>
<path d="M2786 1833 c-3 -4 -12 -8 -19 -10 -67 -15 -82 -21 -91 -35 -6 -9 -7
-20 -3 -24 10 -10 127 48 127 63 0 15 -4 16 -14 6z"/>
<path d="M2830 1824 c0 -8 7 -17 16 -21 15 -5 15 -7 0 -15 -9 -5 -21 -6 -27
-2 -7 4 -10 1 -7 -7 12 -37 62 -14 53 24 -8 28 -35 46 -35 21z"/>
<path d="M3030 1810 c0 -5 7 -7 15 -4 8 4 15 8 15 10 0 2 -7 4 -15 4 -8 0 -15
-4 -15 -10z"/>
<path d="M3030 1793 c-8 -2 -21 -7 -29 -9 -10 -3 -11 -8 -4 -15 14 -14 63 0
63 17 0 15 -5 16 -30 7z"/>
<path d="M3080 1780 c-12 -8 -10 -10 8 -10 13 0 20 4 17 10 -7 12 -6 12 -25 0z"/>
<path d="M2460 1770 c-9 -6 -10 -10 -3 -10 6 0 15 5 18 10 8 12 4 12 -15 0z"/>
<path d="M2904 1762 c15 -18 15 -19 -11 -31 -24 -11 -25 -11 -12 5 13 16 12
17 -6 10 -11 -5 -30 -11 -42 -13 -40 -9 -40 -9 107 -104 19 -12 29 -16 23 -9
-17 19 -16 30 2 30 22 0 18 17 -6 30 -19 11 -19 13 -5 34 14 22 13 24 -10 36
-13 8 -24 17 -24 22 0 4 -7 8 -17 8 -15 0 -15 -1 1 -18z"/>
<path d="M3170 1770 c0 -5 5 -10 11 -10 5 0 7 -5 3 -12 -4 -7 -3 -8 5 -4 9 6
9 11 0 22 -14 17 -19 18 -19 4z"/>
<path d="M3040 1740 c0 -5 7 -10 16 -10 8 0 12 5 9 10 -3 6 -10 10 -16 10 -5
0 -9 -4 -9 -10z"/>
<path d="M3005 1704 c14 -10 31 -13 55 -9 27 4 32 3 20 -5 -12 -9 -12 -11 -1
-8 8 3 16 9 18 15 5 14 -35 24 -42 9 -3 -8 -7 -8 -11 2 -3 6 -18 12 -32 12
-26 -1 -26 -1 -7 -16z"/>
<path d="M3545 1710 c-8 -14 42 -17 65 -5 20 11 19 12 -19 12 -23 0 -44 -3
-46 -7z"/>
<path d="M2373 1690 c-24 -10 -58 -66 -55 -90 3 -18 -56 -60 -84 -60 -29 0
-48 -16 -41 -35 5 -11 14 -15 29 -10 45 12 97 38 93 45 -3 5 2 11 11 14 9 3
14 13 10 21 -3 8 -1 17 4 20 6 4 10 15 10 26 0 10 5 19 12 19 6 0 8 3 5 7 -4
3 3 17 15 30 24 25 23 26 -9 13z"/>
<path d="M3493 1686 c-4 -7 -18 -18 -31 -25 -12 -7 -20 -17 -16 -23 4 -7 3 -8
-4 -4 -7 4 -22 0 -34 -9 -23 -16 -22 -17 12 -10 19 4 41 15 48 24 7 9 11 10 7
4 -3 -7 -1 -13 5 -13 17 0 44 30 45 51 2 22 -20 25 -32 5z"/>
<path d="M2670 1681 c-34 -6 -34 -7 -13 -19 28 -16 33 -15 63 8 23 18 23 19 5
18 -11 0 -36 -4 -55 -7z"/>
<path d="M2997 1624 c-13 -14 5 -24 44 -24 22 0 38 4 34 9 -3 6 -13 9 -23 9
-9 0 -24 2 -33 6 -8 4 -18 4 -22 0z"/>
<path d="M2665 1530 c-3 -6 1 -7 9 -4 18 7 21 14 7 14 -6 0 -13 -4 -16 -10z"/>
<path d="M3113 1507 c-4 -8 -21 -22 -38 -33 -16 -10 -36 -25 -44 -32 -8 -8
-33 -25 -55 -39 -54 -34 -106 -80 -99 -87 3 -3 -3 -9 -13 -13 -26 -9 -127 -83
-137 -100 -4 -7 -17 -13 -27 -13 -10 0 -22 -5 -25 -10 -4 -6 -11 -8 -16 -5
-15 10 -10 -12 6 -29 8 -8 15 -19 15 -25 0 -18 16 -12 46 17 17 16 38 31 47
35 9 3 17 13 17 20 0 8 11 19 25 25 14 6 25 15 25 20 0 5 25 26 55 47 30 20
55 42 55 47 0 5 17 16 38 24 20 9 55 24 77 34 22 9 48 20 58 23 18 7 25 57 7
57 -7 0 -7 6 0 19 5 11 10 22 10 25 0 11 -19 6 -27 -7z"/>
<path d="M3600 1486 c0 -2 7 -7 16 -10 8 -3 12 -2 9 4 -6 10 -25 14 -25 6z"/>
<path d="M3678 1419 c-10 -5 -18 -15 -18 -21 0 -6 8 -4 18 5 10 10 22 14 25
10 4 -3 7 -1 7 5 0 14 -9 15 -32 1z"/>
<path d="M3618 1393 c6 -2 18 -2 25 0 6 3 1 5 -13 5 -14 0 -19 -2 -12 -5z"/>
<path d="M2565 1330 c3 -5 10 -10 16 -10 5 0 9 5 9 10 0 6 -7 10 -16 10 -8 0
-12 -4 -9 -10z"/>
<path d="M3350 1310 c-10 -7 5 -10 49 -10 35 0 62 2 60 4 -11 9 -96 14 -109 6z"/>
<path d="M3737 1263 c-4 -34 -12 -65 -17 -68 -23 -14 -7 -32 37 -42 48 -11 77
-8 67 8 -3 5 2 6 11 3 9 -4 14 -13 11 -20 -3 -9 0 -11 11 -7 11 4 14 2 9 -5
-10 -16 24 -15 47 2 9 7 17 18 17 24 0 6 6 12 13 15 6 2 0 2 -15 0 -28 -5 -39
11 -15 20 6 3 0 6 -14 6 -15 1 -29 -6 -33 -14 -3 -8 -11 -15 -18 -15 -9 0 -9
3 0 12 18 18 14 30 -7 19 -14 -8 -22 -7 -31 4 -6 7 -21 15 -33 17 -18 2 -23
11 -27 53 l-5 50 -8 -62z"/>
<path d="M3498 1283 c6 -2 18 -2 25 0 6 3 1 5 -13 5 -14 0 -19 -2 -12 -5z"/>
<path d="M3558 1233 c7 -3 16 -2 19 1 4 3 -2 6 -13 5 -11 0 -14 -3 -6 -6z"/>
<path d="M2631 1184 c0 -11 3 -14 6 -6 3 7 2 16 -1 19 -3 4 -6 -2 -5 -13z"/>
<path d="M2875 1157 c-16 -12 -52 -37 -78 -56 -27 -18 -46 -35 -43 -38 7 -7
86 39 86 50 0 5 8 7 19 4 25 -6 51 10 44 29 -3 9 0 14 7 12 7 -2 15 3 17 10 7
18 -18 13 -52 -11z"/>
<path d="M2481 1078 c-1 -10 3 -18 8 -18 5 0 12 -13 16 -29 4 -19 14 -31 30
-35 31 -8 70 14 69 39 -3 54 -2 53 -47 51 -23 -1 -47 -5 -54 -9 -6 -4 -14 -1
-16 5 -3 8 -6 6 -6 -4z"/>
<path d="M2480 1019 c0 -11 4 -18 10 -14 5 3 7 12 3 20 -7 21 -13 19 -13 -6z"/>
<path d="M2660 1021 c-8 -6 -18 -7 -22 -5 -15 10 -8 -24 8 -37 18 -15 39 -5
62 29 13 21 13 22 -9 22 -13 0 -31 -4 -39 -9z"/>
<path d="M2590 990 c0 -6 7 -10 15 -10 8 0 15 2 15 4 0 2 -7 6 -15 10 -8 3
-15 1 -15 -4z"/>
<path d="M3640 975 c-10 -13 -9 -15 8 -15 15 0 20 5 16 15 -4 8 -7 15 -9 15
-1 0 -8 -7 -15 -15z"/>
<path d="M3216 915 c4 -8 12 -15 20 -15 19 0 18 16 -2 24 -22 9 -24 8 -18 -9z"/>
<path d="M2516 895 c4 -8 8 -15 10 -15 2 0 4 7 4 15 0 8 -4 15 -10 15 -5 0 -7
-7 -4 -15z"/>
<path d="M3440 901 c0 -6 5 -13 10 -16 6 -3 10 1 10 9 0 9 -4 16 -10 16 -5 0
-10 -4 -10 -9z"/>
<path d="M2581 874 c-20 -21 -22 -27 -10 -35 8 -5 22 -9 33 -9 13 0 16 4 11
18 -5 9 -8 25 -9 35 0 9 0 17 -1 17 0 0 -11 -12 -24 -26z"/>
<path d="M2510 850 c0 -11 5 -20 10 -20 6 0 10 9 10 20 0 11 -4 20 -10 20 -5
0 -10 -9 -10 -20z"/>
<path d="M3604 862 c3 -5 0 -13 -6 -15 -9 -4 -10 -6 -1 -6 17 -1 25 16 12 25
-7 4 -9 3 -5 -4z"/>
<path d="M3190 798 c0 -6 -12 -41 -26 -76 -15 -38 -24 -76 -21 -91 3 -14 -3
-43 -13 -66 -10 -22 -21 -47 -24 -55 -4 -8 -13 -26 -21 -40 -8 -14 -14 -45
-13 -70 0 -25 3 -35 5 -22 3 13 11 26 19 29 8 3 14 15 14 27 0 13 3 26 7 30 4
3 8 12 9 19 7 40 25 67 46 67 23 1 23 1 -2 15 -24 13 -24 16 -1 19 15 2 26 16
13 16 -7 0 -12 14 -12 30 0 17 5 30 10 30 6 0 10 17 10 38 0 48 15 74 25 43 3
-11 11 -21 17 -21 5 0 8 -7 4 -15 -3 -8 -1 -15 4 -15 15 0 13 8 -16 67 -27 54
-34 63 -34 41z"/>
<path d="M3521 718 c-12 -12 -22 -28 -22 -35 -2 -20 -21 -73 -35 -94 -3 -5 -2
-9 1 -9 3 0 13 16 21 36 15 35 40 42 38 10 -1 -9 5 -16 13 -16 13 0 13 4 -1
25 -21 32 -17 66 8 81 12 7 15 14 8 18 -6 3 -20 -4 -31 -16z"/>
<path d="M3447 716 c-4 -10 -5 -21 -2 -24 9 -9 17 6 13 25 -3 17 -4 17 -11 -1z"/>
<path d="M3577 713 c4 -10 2 -14 -5 -9 -6 3 -13 2 -17 -4 -3 -6 4 -9 17 -8 25
2 35 38 11 38 -7 0 -10 -7 -6 -17z"/>
<path d="M3405 700 c-3 -5 -1 -10 4 -10 6 0 11 5 11 10 0 6 -2 10 -4 10 -3 0
-8 -4 -11 -10z"/>
<path d="M3224 611 c-2 -2 -1 -7 1 -11 5 -8 53 -1 59 9 4 6 -53 9 -60 2z"/>
<path d="M2570 576 c0 -8 5 -18 10 -21 6 -3 10 3 10 14 0 12 -4 21 -10 21 -5
0 -10 -6 -10 -14z"/>
<path d="M3250 560 c0 -6 8 -13 18 -16 9 -3 25 -10 34 -15 21 -11 38 -12 37
-1 -5 27 4 30 24 6 16 -18 26 -24 31 -16 4 7 2 12 -4 12 -6 0 -9 4 -6 9 9 13
-41 31 -89 31 -25 0 -45 -5 -45 -10z"/>
<path d="M3398 493 c6 -2 18 -2 25 0 6 3 1 5 -13 5 -14 0 -19 -2 -12 -5z"/>
<path d="M3460 460 c-13 -8 -13 -10 2 -10 9 0 20 5 23 10 8 13 -5 13 -25 0z"/>
<path d="M3436 355 c4 -8 8 -15 10 -15 2 0 4 7 4 15 0 8 -4 15 -10 15 -5 0 -7
-7 -4 -15z"/>
<path d="M3088 343 c7 -3 16 -2 19 1 4 3 -2 6 -13 5 -11 0 -14 -3 -6 -6z"/>
<path d="M3026 319 c-24 -28 -11 -38 15 -12 12 11 17 23 12 26 -5 3 -17 -3
-27 -14z"/>
<path d="M3410 321 c-6 -12 -7 -21 -1 -21 10 0 24 30 17 37 -2 3 -9 -5 -16
-16z"/>
<path d="M3212 280 c0 -14 2 -19 5 -12 2 6 2 18 0 25 -3 6 -5 1 -5 -13z"/>
<path d="M4403 283 c36 -9 15 -22 -33 -19 -48 3 -69 -8 -32 -17 37 -10 112 -8
112 3 0 6 4 9 9 5 5 -3 12 -1 16 5 3 5 18 10 33 11 15 0 36 4 47 9 12 5 -4 6
-40 3 -33 -3 -65 -10 -71 -15 -8 -5 -14 -3 -18 7 -3 8 -13 14 -23 14 -17 -1
-17 -2 0 -6z"/>
<path d="M4222 263 c-8 -7 -8 -14 -2 -18 6 -3 10 -1 10 5 0 7 13 10 35 7 19
-3 38 -1 41 4 6 10 4 10 -42 13 -17 1 -36 -4 -42 -11z"/>
<path d="M3300 235 c0 -8 9 -15 20 -15 11 0 20 2 20 5 0 2 -9 9 -20 15 -16 9
-20 8 -20 -5z"/>
<path d="M4560 200 c0 -5 7 -7 15 -4 8 4 15 8 15 10 0 2 -7 4 -15 4 -8 0 -15
-4 -15 -10z"/>
<path d="M4526 139 c6 -10 74 -7 74 3 0 4 -18 6 -40 6 -22 0 -37 -4 -34 -9z"/>
<path d="M4578 43 c7 -3 16 -2 19 1 4 3 -2 6 -13 5 -11 0 -14 -3 -6 -6z"/>
<path d="M4318 23 c6 -2 18 -2 25 0 6 3 1 5 -13 5 -14 0 -19 -2 -12 -5z"/>
<path d="M4533 23 c15 -2 37 -2 50 0 12 2 0 4 -28 4 -27 0 -38 -2 -22 -4z"/>
<path d="M4210 10 c0 -5 5 -10 11 -10 5 0 7 5 4 10 -3 6 -8 10 -11 10 -2 0 -4
-4 -4 -10z"/>
</g>
</svg>
